<svg width="365.723" height="79.786" viewBox="0 0 365.723 79.786" xmlns="http://www.w3.org/2000/svg"><g id="svgGroup" stroke-linecap="round" fill-rule="evenodd" font-size="9pt" stroke="#0f0e18" stroke-width="0.25mm" fill="#0f0e18" style="stroke:#0f0e18;stroke-width:0.25mm;fill:#0f0e18"><path d="M 142.416 62.84 A 7.222 7.222 0 0 0 143.164 59.668 A 6.986 6.986 0 0 0 143.135 59.027 A 7.619 7.619 0 0 0 142.627 56.934 A 9.424 9.424 0 0 0 142.432 56.474 A 8.12 8.12 0 0 0 141.211 54.541 Q 140.332 53.516 139.063 52.881 A 6.029 6.029 0 0 0 136.328 52.246 Q 135.059 52.246 132.422 52.881 A 79.421 79.421 0 0 0 131.091 53.214 A 90.853 90.853 0 0 0 126.953 54.395 A 235.923 235.923 0 0 0 125.552 54.834 A 208.959 208.959 0 0 0 121.533 56.152 A 2006.529 2006.529 0 0 1 121.342 56.217 Q 119.535 56.831 118.448 57.196 A 300.48 300.48 0 0 1 117.773 57.422 L 117.383 54.688 A 19.312 19.312 0 0 1 117.188 51.953 A 8.04 8.04 0 0 1 117.194 51.622 A 8.946 8.946 0 0 1 117.383 50.147 A 53.053 53.053 0 0 1 117.578 49.255 A 41.544 41.544 0 0 1 117.773 48.438 A 569.09 569.09 0 0 0 124.609 46.045 Q 128.027 44.824 131.152 43.164 Q 132.422 42.48 133.74 41.748 A 12.669 12.669 0 0 0 133.924 41.644 A 11.336 11.336 0 0 0 136.084 40.039 Q 137.109 39.063 137.744 37.793 A 5.782 5.782 0 0 0 138.221 36.42 A 7.373 7.373 0 0 0 138.379 34.863 Q 138.379 29.523 134.147 28.354 A 10.173 10.173 0 0 0 131.445 28.027 A 18.829 18.829 0 0 0 128.043 28.348 A 24.34 24.34 0 0 0 124.219 29.395 A 65.532 65.532 0 0 0 121.036 30.628 A 50.632 50.632 0 0 0 117.383 32.324 Q 117.578 29.98 118.018 27.686 A 271.444 271.444 0 0 0 118.848 23.145 A 74.073 74.073 0 0 1 119.076 23.047 Q 120.1 22.612 122.025 21.826 A 726.777 726.777 0 0 1 123.584 21.191 A 134.734 134.734 0 0 0 125.718 20.304 A 158.03 158.03 0 0 0 130.615 18.115 A 112.738 112.738 0 0 0 133.286 16.827 A 94.275 94.275 0 0 0 137.402 14.648 Q 140.527 12.891 141.504 11.621 Q 141.894 11.008 142.172 10.459 A 8.818 8.818 0 0 0 142.529 9.668 Q 142.738 9.132 142.819 8.452 A 7.867 7.867 0 0 0 142.871 7.52 Q 142.871 6.055 142.334 4.736 Q 141.797 3.418 140.869 2.344 Q 139.941 1.27 138.623 0.635 Q 137.305 0 135.84 0 A 12.022 12.022 0 0 0 135.336 0.011 Q 134.494 0.047 133.276 0.192 A 57.074 57.074 0 0 0 132.129 0.342 A 120.496 120.496 0 0 0 129.553 0.732 A 163.816 163.816 0 0 0 126.709 1.221 A 96.339 96.339 0 0 0 125.204 1.505 A 110.569 110.569 0 0 0 120.508 2.539 Q 117.285 3.32 114.502 4.199 Q 112.936 4.694 111.603 5.219 A 30.505 30.505 0 0 0 109.668 6.055 A 17.637 17.637 0 0 0 108.965 6.408 Q 107.492 7.192 106.934 7.91 A 20.876 20.876 0 0 0 104.892 11.325 A 27.745 27.745 0 0 0 103.369 15.283 Q 102.051 19.629 101.367 24.365 Q 100.684 29.102 100.439 33.789 A 223.199 223.199 0 0 0 100.376 35.086 Q 100.287 37 100.242 38.723 A 129.128 129.128 0 0 0 100.195 42.09 A 41.823 41.823 0 0 0 100.195 42.164 Q 100.197 42.892 100.223 44.214 A 336.34 336.34 0 0 0 100.244 45.215 A 118.075 118.075 0 0 0 100.26 45.832 Q 100.286 46.776 100.33 47.833 A 207.369 207.369 0 0 0 100.439 50.147 A 503.56 503.56 0 0 0 100.598 53.003 A 585.635 585.635 0 0 0 100.781 56.006 A 248.325 248.325 0 0 0 100.989 58.997 A 208.743 208.743 0 0 0 101.221 61.816 A 90.514 90.514 0 0 0 101.291 62.572 Q 101.4 63.685 101.526 64.676 A 50.62 50.62 0 0 0 101.807 66.602 A 29.498 29.498 0 0 0 101.857 66.893 Q 102.177 68.702 102.539 69.336 A 6.459 6.459 0 0 0 102.987 70.001 Q 103.318 70.433 103.756 70.878 A 14.012 14.012 0 0 0 104.736 71.777 A 17.648 17.648 0 0 0 104.951 71.954 A 19.082 19.082 0 0 0 108.105 74.023 A 28.662 28.662 0 0 0 108.569 74.262 A 25.803 25.803 0 0 0 111.816 75.635 A 15.479 15.479 0 0 0 112.624 75.887 Q 113.276 76.071 113.86 76.167 A 7.337 7.337 0 0 0 115.039 76.27 A 7.756 7.756 0 0 0 116.055 76.194 Q 117.938 75.943 121.094 74.854 A 86.433 86.433 0 0 0 123.686 73.911 A 101.517 101.517 0 0 0 129.59 71.436 A 79.543 79.543 0 0 0 132.776 69.9 A 65.756 65.756 0 0 0 137.598 67.188 Q 140.202 65.569 141.436 64.254 A 5.594 5.594 0 0 0 142.188 63.281 A 8.665 8.665 0 0 0 142.416 62.84 Z M 364.975 62.84 A 7.222 7.222 0 0 0 365.723 59.668 A 6.986 6.986 0 0 0 365.693 59.027 A 7.619 7.619 0 0 0 365.186 56.934 A 9.424 9.424 0 0 0 364.991 56.474 A 8.12 8.12 0 0 0 363.77 54.541 Q 362.891 53.516 361.621 52.881 A 6.029 6.029 0 0 0 358.887 52.246 Q 357.617 52.246 354.98 52.881 A 79.421 79.421 0 0 0 353.65 53.214 A 90.853 90.853 0 0 0 349.512 54.395 A 235.923 235.923 0 0 0 348.111 54.834 A 208.959 208.959 0 0 0 344.092 56.152 A 2006.529 2006.529 0 0 1 343.9 56.217 Q 342.094 56.831 341.006 57.196 A 300.48 300.48 0 0 1 340.332 57.422 L 339.941 54.688 A 19.312 19.312 0 0 1 339.746 51.953 A 8.04 8.04 0 0 1 339.753 51.622 A 8.946 8.946 0 0 1 339.941 50.147 A 53.053 53.053 0 0 1 340.137 49.255 A 41.544 41.544 0 0 1 340.332 48.438 A 569.09 569.09 0 0 0 347.168 46.045 Q 350.586 44.824 353.711 43.164 Q 354.98 42.48 356.299 41.748 A 12.669 12.669 0 0 0 356.483 41.644 A 11.336 11.336 0 0 0 358.643 40.039 Q 359.668 39.063 360.303 37.793 A 5.782 5.782 0 0 0 360.78 36.42 A 7.373 7.373 0 0 0 360.938 34.863 Q 360.938 29.523 356.706 28.354 A 10.173 10.173 0 0 0 354.004 28.027 A 18.829 18.829 0 0 0 350.601 28.348 A 24.34 24.34 0 0 0 346.777 29.395 A 65.532 65.532 0 0 0 343.594 30.628 A 50.632 50.632 0 0 0 339.941 32.324 Q 340.137 29.98 340.576 27.686 A 271.444 271.444 0 0 0 341.406 23.145 A 74.073 74.073 0 0 1 341.635 23.047 Q 342.659 22.612 344.583 21.826 A 726.777 726.777 0 0 1 346.143 21.191 A 134.734 134.734 0 0 0 348.277 20.304 A 158.03 158.03 0 0 0 353.174 18.115 A 112.738 112.738 0 0 0 355.845 16.827 A 94.275 94.275 0 0 0 359.961 14.648 Q 363.086 12.891 364.063 11.621 Q 364.452 11.008 364.731 10.459 A 8.818 8.818 0 0 0 365.088 9.668 Q 365.296 9.132 365.378 8.452 A 7.867 7.867 0 0 0 365.43 7.52 Q 365.43 6.055 364.893 4.736 Q 364.355 3.418 363.428 2.344 Q 362.5 1.27 361.182 0.635 Q 359.863 0 358.398 0 A 12.022 12.022 0 0 0 357.894 0.011 Q 357.053 0.047 355.835 0.192 A 57.074 57.074 0 0 0 354.688 0.342 A 120.496 120.496 0 0 0 352.112 0.732 A 163.816 163.816 0 0 0 349.268 1.221 A 96.339 96.339 0 0 0 347.763 1.505 A 110.569 110.569 0 0 0 343.066 2.539 Q 339.844 3.32 337.061 4.199 Q 335.495 4.694 334.161 5.219 A 30.505 30.505 0 0 0 332.227 6.055 A 17.637 17.637 0 0 0 331.524 6.408 Q 330.051 7.192 329.492 7.91 A 20.876 20.876 0 0 0 327.45 11.325 A 27.745 27.745 0 0 0 325.928 15.283 Q 324.609 19.629 323.926 24.365 Q 323.242 29.102 322.998 33.789 A 223.199 223.199 0 0 0 322.934 35.086 Q 322.846 37 322.801 38.723 A 129.128 129.128 0 0 0 322.754 42.09 A 41.823 41.823 0 0 0 322.754 42.164 Q 322.755 42.892 322.781 44.214 A 336.34 336.34 0 0 0 322.803 45.215 A 118.075 118.075 0 0 0 322.818 45.832 Q 322.845 46.776 322.889 47.833 A 207.369 207.369 0 0 0 322.998 50.147 A 503.56 503.56 0 0 0 323.157 53.003 A 585.635 585.635 0 0 0 323.34 56.006 A 248.325 248.325 0 0 0 323.547 58.997 A 208.743 208.743 0 0 0 323.779 61.816 A 90.514 90.514 0 0 0 323.85 62.572 Q 323.959 63.685 324.085 64.676 A 50.62 50.62 0 0 0 324.365 66.602 A 29.498 29.498 0 0 0 324.415 66.893 Q 324.735 68.702 325.098 69.336 A 6.459 6.459 0 0 0 325.546 70.001 Q 325.876 70.433 326.314 70.878 A 14.012 14.012 0 0 0 327.295 71.777 A 17.648 17.648 0 0 0 327.509 71.954 A 19.082 19.082 0 0 0 330.664 74.023 A 28.662 28.662 0 0 0 331.128 74.262 A 25.803 25.803 0 0 0 334.375 75.635 A 15.479 15.479 0 0 0 335.182 75.887 Q 335.834 76.071 336.418 76.167 A 7.337 7.337 0 0 0 337.598 76.27 A 7.756 7.756 0 0 0 338.613 76.194 Q 340.497 75.943 343.652 74.854 A 86.433 86.433 0 0 0 346.244 73.911 A 101.517 101.517 0 0 0 352.148 71.436 A 79.543 79.543 0 0 0 355.334 69.9 A 65.756 65.756 0 0 0 360.156 67.188 Q 362.76 65.569 363.995 64.254 A 5.594 5.594 0 0 0 364.746 63.281 A 8.665 8.665 0 0 0 364.975 62.84 Z M 45.407 27.874 A 17.561 17.561 0 0 0 45.605 25.293 A 41.68 41.68 0 0 0 45.496 22.302 A 50.059 50.059 0 0 0 44.824 17.041 A 30.3 30.3 0 0 0 44.722 16.501 A 26.905 26.905 0 0 0 42.09 9.033 A 17.946 17.946 0 0 0 36.914 2.979 Q 33.691 0.586 28.906 0.586 A 21.85 21.85 0 0 0 28.299 0.594 A 18.638 18.638 0 0 0 19.971 2.734 Q 15.918 4.883 12.695 8.398 A 34.699 34.699 0 0 0 11.136 10.223 A 38.892 38.892 0 0 0 7.08 16.504 Q 4.688 21.094 3.125 26.025 A 68.095 68.095 0 0 0 0.781 35.84 A 66.358 66.358 0 0 0 0.22 40.246 A 50.108 50.108 0 0 0 0 44.824 Q 0 50.977 1.318 57.178 A 40.907 40.907 0 0 0 1.723 58.899 A 35.564 35.564 0 0 0 5.664 68.408 A 25.077 25.077 0 0 0 13.574 76.611 A 19.013 19.013 0 0 0 19.938 79.22 A 25.961 25.961 0 0 0 25.488 79.785 Q 28.223 79.785 31.592 78.613 Q 34.961 77.441 37.842 75.391 A 23.455 23.455 0 0 0 38.209 75.124 A 20.758 20.758 0 0 0 42.676 70.654 A 11.801 11.801 0 0 0 42.855 70.402 A 9.619 9.619 0 0 0 44.629 64.844 Q 44.629 62.598 43.164 60.791 Q 41.699 58.984 39.453 58.984 A 15.471 15.471 0 0 0 35.596 59.473 A 49.902 49.902 0 0 0 31.836 60.596 A 53.624 53.624 0 0 1 28.125 61.719 A 14.902 14.902 0 0 1 24.316 62.207 Q 21.387 62.207 19.824 60.4 A 10.769 10.769 0 0 1 18.607 58.67 A 12.947 12.947 0 0 1 17.48 56.006 Q 16.699 53.418 16.553 50.586 Q 16.461 48.816 16.427 47.351 A 70.566 70.566 0 0 1 16.406 45.703 Q 16.406 44.141 16.602 41.65 A 60.675 60.675 0 0 1 16.782 39.742 A 72.744 72.744 0 0 1 17.236 36.377 Q 17.676 33.594 18.408 30.762 A 32.164 32.164 0 0 1 19.114 28.396 A 25.219 25.219 0 0 1 20.215 25.684 A 14.941 14.941 0 0 1 21.269 23.819 A 10.974 10.974 0 0 1 22.754 22.022 A 4.764 4.764 0 0 1 26.172 20.605 Q 26.721 20.605 27.151 20.725 A 1.912 1.912 0 0 1 28.467 21.826 A 6.034 6.034 0 0 1 28.694 22.433 Q 28.864 22.968 28.967 23.6 A 12.125 12.125 0 0 1 29.102 24.902 Q 29.199 26.758 29.248 28.857 A 13.639 13.639 0 0 0 29.257 29.119 A 12.102 12.102 0 0 0 29.98 32.813 A 6.583 6.583 0 0 0 32.324 35.889 Q 33.517 36.766 35.619 37.013 A 15.34 15.34 0 0 0 37.402 37.109 Q 39.648 37.109 41.211 35.938 A 9.195 9.195 0 0 0 43.75 33.008 Q 44.727 31.25 45.166 29.199 A 21.193 21.193 0 0 0 45.407 27.874 Z M 95.978 31.43 A 24.923 24.923 0 0 0 97.168 23.633 Q 97.168 19.043 95.898 14.893 A 24.75 24.75 0 0 0 95.692 14.25 A 21.608 21.608 0 0 0 92.09 7.568 A 18.227 18.227 0 0 0 85.742 2.539 Q 81.934 0.684 76.953 0.684 A 12.497 12.497 0 0 0 76.044 0.72 Q 74.762 0.814 72.897 1.151 A 66.304 66.304 0 0 0 71.045 1.514 Q 67.09 2.344 62.939 3.76 A 57.259 57.259 0 0 0 60.412 4.688 A 48.51 48.51 0 0 0 55.322 7.031 A 21.782 21.782 0 0 0 54.883 7.273 Q 51.792 9.02 50.879 10.938 A 4.401 4.401 0 0 0 50.623 11.491 Q 50.473 11.877 50.364 12.343 A 9.793 9.793 0 0 0 50.195 13.281 A 66.761 66.761 0 0 0 50.101 14.023 A 76.554 76.554 0 0 0 49.854 16.357 A 37.72 37.72 0 0 0 49.819 16.759 A 34.1 34.1 0 0 0 49.707 19.482 L 49.707 21.973 A 243.706 243.706 0 0 0 49.854 30.469 A 240.883 240.883 0 0 1 50 38.867 A 205.716 205.716 0 0 1 49.805 47.9 A 205.716 205.716 0 0 0 49.609 56.934 A 121.518 121.518 0 0 0 49.615 58.029 Q 49.632 59.963 49.707 62.842 A 42.612 42.612 0 0 0 50.537 70.215 A 20.392 20.392 0 0 0 51.196 72.686 A 15.994 15.994 0 0 0 53.027 76.465 A 7.267 7.267 0 0 0 53.196 76.707 Q 54.209 78.1 55.672 78.683 A 6.263 6.263 0 0 0 58.008 79.102 A 4.903 4.903 0 0 0 61.339 77.896 A 6.42 6.42 0 0 0 62.598 76.367 Q 64.258 73.633 65.088 69.922 A 48.602 48.602 0 0 0 66.162 62.451 A 581.811 581.811 0 0 0 66.269 60.777 Q 66.429 58.188 66.504 56.543 A 82.971 82.971 0 0 0 69.922 55.127 Q 71.582 54.395 73.34 53.809 Q 74.173 55.475 75.069 57.856 A 82.49 82.49 0 0 1 76.025 60.547 A 119.51 119.51 0 0 0 79.15 68.799 A 38.42 38.42 0 0 0 80.769 72.186 A 29.104 29.104 0 0 0 83.057 75.781 Q 85.254 78.711 88.281 78.711 A 8.322 8.322 0 0 0 90.1 78.525 A 4.958 4.958 0 0 0 93.408 76.221 A 10.181 10.181 0 0 0 94.301 74.349 A 11.061 11.061 0 0 0 94.922 70.605 A 23.83 23.83 0 0 0 94.714 67.542 A 32.047 32.047 0 0 0 94.092 64.209 A 56.539 56.539 0 0 0 91.943 57.275 Q 90.625 53.809 88.965 50.684 Q 88.109 49.072 87.279 47.669 A 53.792 53.792 0 0 0 85.742 45.215 A 38.009 38.009 0 0 0 86.381 44.697 A 33.406 33.406 0 0 0 94.043 35.742 A 22.411 22.411 0 0 0 95.978 31.43 Z M 321.473 13.952 A 33.392 33.392 0 0 0 321.68 10.352 A 15.684 15.684 0 0 0 321.668 9.749 A 17.698 17.698 0 0 0 321.436 7.52 A 11.843 11.843 0 0 0 321.404 7.337 A 10.619 10.619 0 0 0 320.605 4.785 A 6.01 6.01 0 0 0 320.601 4.775 A 5.151 5.151 0 0 0 318.945 2.734 A 3.618 3.618 0 0 0 318.842 2.662 Q 317.792 1.953 316.211 1.953 Q 314.614 1.953 313.067 3.187 A 9.915 9.915 0 0 0 311.816 4.395 Q 309.668 6.836 307.666 10.693 A 72.455 72.455 0 0 0 305.952 14.237 A 91.329 91.329 0 0 0 303.857 19.287 A 271.88 271.88 0 0 0 303.41 20.467 A 246.022 246.022 0 0 0 300.537 28.516 A 288.713 288.713 0 0 0 299.121 32.825 A 217.537 217.537 0 0 0 297.9 36.768 A 10650.086 10650.086 0 0 1 297.403 38.431 Q 296.889 40.151 296.518 41.391 A 2460.027 2460.027 0 0 1 296.191 42.48 A 21.217 21.217 0 0 1 296.148 42.376 Q 295.498 40.793 294.849 38.496 A 71.335 71.335 0 0 1 294.238 36.182 A 809.088 809.088 0 0 1 293.237 32.08 A 991.673 991.673 0 0 1 292.188 27.686 A 423.331 423.331 0 0 0 289.893 18.457 A 90.549 90.549 0 0 0 288.611 13.989 A 70.006 70.006 0 0 0 287.207 9.961 Q 286.372 7.789 285.425 6.077 A 19.519 19.519 0 0 0 283.936 3.76 Q 283.131 2.694 282.259 2.103 A 4 4 0 0 0 279.98 1.367 A 10.173 10.173 0 0 0 279.091 1.405 Q 278.277 1.476 277.6 1.684 A 4.747 4.747 0 0 0 276.025 2.49 Q 274.609 3.613 273.828 5.371 A 11.234 11.234 0 0 0 273.397 6.503 A 12.77 12.77 0 0 0 272.852 9.229 A 48.096 48.096 0 0 0 272.785 10.011 A 42.848 42.848 0 0 0 272.656 13.281 Q 272.656 21.094 274.414 28.857 A 558.271 558.271 0 0 0 278.125 44.238 Q 278.418 45.41 278.958 47.351 A 308.153 308.153 0 0 0 279.346 48.73 A 87.775 87.775 0 0 0 280.273 51.782 A 114.193 114.193 0 0 0 281.396 55.078 A 117.668 117.668 0 0 0 281.706 55.935 A 129.72 129.72 0 0 0 284.131 62.061 A 61.691 61.691 0 0 0 285.343 64.741 A 49.621 49.621 0 0 0 287.354 68.506 Q 289.063 71.387 290.967 73.242 A 9.46 9.46 0 0 0 291.214 73.475 Q 293.004 75.098 294.922 75.098 A 6.482 6.482 0 0 0 297.49 74.572 A 7.917 7.917 0 0 0 299.463 73.34 A 16.808 16.808 0 0 0 301.477 71.326 A 22.236 22.236 0 0 0 303.32 68.799 A 37.254 37.254 0 0 0 304.802 66.223 A 46.382 46.382 0 0 0 306.543 62.5 A 124.219 124.219 0 0 0 309.229 55.469 A 157.807 157.807 0 0 0 310.103 52.88 A 132.294 132.294 0 0 0 311.377 48.779 A 128.02 128.02 0 0 1 311.942 46.896 Q 312.218 46.004 312.479 45.213 A 62.364 62.364 0 0 1 313.086 43.457 Q 314.258 40.039 315.771 35.791 A 161.692 161.692 0 0 0 318.604 27.051 Q 319.922 22.559 320.801 18.213 A 55.207 55.207 0 0 0 320.91 17.656 Q 321.281 15.72 321.473 13.952 Z M 196.827 62.122 A 27.74 27.74 0 0 0 196.875 60.547 A 97.099 97.099 0 0 0 195.996 47.51 A 207.072 207.072 0 0 0 193.848 34.668 A 8603.355 8603.355 0 0 0 193.707 33.911 Q 193.493 32.752 193.252 31.454 A 15097.172 15097.172 0 0 0 192.725 28.613 A 93.002 93.002 0 0 0 192.644 28.185 A 101.372 101.372 0 0 0 191.162 21.631 A 61.101 61.101 0 0 0 188.867 14.6 A 29.742 29.742 0 0 0 188.329 13.322 A 25.776 25.776 0 0 0 185.449 8.398 A 19.316 19.316 0 0 0 185.125 7.978 A 16.836 16.836 0 0 0 180.664 4.004 A 11.031 11.031 0 0 0 177.483 2.709 A 14.002 14.002 0 0 0 174.219 2.344 Q 170.41 2.344 167.285 4.297 A 20.167 20.167 0 0 0 165.904 5.242 A 22.098 22.098 0 0 0 161.719 9.375 A 35.047 35.047 0 0 0 160.245 11.409 A 40.681 40.681 0 0 0 157.373 16.455 A 76.985 76.985 0 0 0 154.053 24.463 A 106.688 106.688 0 0 0 153.372 26.474 A 93.511 93.511 0 0 0 151.66 32.324 A 200.396 200.396 0 0 0 151.088 34.609 Q 150.821 35.704 150.592 36.704 A 109.992 109.992 0 0 0 150.098 38.965 A 203.2 203.2 0 0 0 148.047 49.756 A 68.523 68.523 0 0 0 147.168 60.742 Q 147.168 61.987 147.25 63.699 A 112.211 112.211 0 0 0 147.314 64.893 A 21.774 21.774 0 0 0 148.145 69.727 A 14.041 14.041 0 0 0 148.606 71.062 A 11.451 11.451 0 0 0 150.146 73.779 Q 151.465 75.488 153.809 75.488 Q 156.836 75.488 158.936 73.242 A 16.87 16.87 0 0 0 160.069 71.894 A 18.905 18.905 0 0 0 162.354 67.92 Q 163.672 64.844 164.307 61.523 Q 164.941 58.203 165.137 55.957 A 376.101 376.101 0 0 0 179.004 53.906 A 668.763 668.763 0 0 1 179.052 55.045 Q 179.136 57.045 179.248 59.961 Q 179.395 63.77 180.176 67.432 A 20.561 20.561 0 0 0 180.906 70.034 A 15.973 15.973 0 0 0 182.764 73.73 Q 184.57 76.367 188.184 76.367 A 7.785 7.785 0 0 0 189.27 76.294 A 5.55 5.55 0 0 0 192.578 74.658 A 11.36 11.36 0 0 0 193.814 73.141 A 13.453 13.453 0 0 0 195.215 70.459 A 21.584 21.584 0 0 0 196.533 65.234 Q 196.747 63.525 196.827 62.122 Z M 261.133 59.668 L 261.719 59.668 A 13.923 13.923 0 0 1 264.795 60.01 A 7.912 7.912 0 0 1 267.529 61.182 Q 268.75 62.012 269.482 63.232 Q 270.215 64.453 270.215 66.211 A 5.829 5.829 0 0 1 268.799 70.117 A 10.812 10.812 0 0 1 266.747 71.959 A 14.071 14.071 0 0 1 265.088 72.949 A 25.168 25.168 0 0 1 262.009 74.262 A 30.727 30.727 0 0 1 259.961 74.902 A 50.278 50.278 0 0 1 254.297 76.123 A 75.078 75.078 0 0 1 250.871 76.577 A 62.843 62.843 0 0 1 248.926 76.758 Q 246.387 76.953 244.824 76.953 A 35.973 35.973 0 0 1 243.87 76.939 Q 243.011 76.917 241.943 76.855 A 13.107 13.107 0 0 1 239.295 76.439 A 11.869 11.869 0 0 1 238.721 76.27 Q 237.207 75.781 236.133 74.805 Q 235.059 73.828 235.059 72.168 A 8.692 8.692 0 0 1 235.293 70.113 A 7.206 7.206 0 0 1 235.889 68.506 A 10.426 10.426 0 0 1 238.086 65.625 Q 239.453 64.355 241.162 63.574 Q 242.871 62.793 244.629 62.402 A 635.622 635.622 0 0 0 245.898 51.709 Q 246.484 46.387 246.68 40.918 A 11608.601 11608.601 0 0 1 247.07 29.932 A 33907.926 33907.926 0 0 0 247.461 19.043 A 24.627 24.627 0 0 1 246.802 19.128 A 19.353 19.353 0 0 1 246.191 19.189 A 14.941 14.941 0 0 1 245.63 19.226 A 11.31 11.31 0 0 1 245.117 19.238 Q 243.75 19.238 242.188 18.945 Q 240.625 18.652 239.258 17.92 A 8.306 8.306 0 0 1 237.586 16.751 A 7.363 7.363 0 0 1 236.963 16.113 A 3.761 3.761 0 0 1 236.103 14.231 A 5.188 5.188 0 0 1 236.035 13.379 A 6.498 6.498 0 0 1 238.204 8.43 A 8.754 8.754 0 0 1 238.818 7.91 A 19.152 19.152 0 0 1 243.043 5.464 A 23.888 23.888 0 0 1 245.459 4.59 A 43.202 43.202 0 0 1 253.32 2.979 A 100.417 100.417 0 0 1 255.67 2.747 Q 257.927 2.553 259.539 2.54 A 28.331 28.331 0 0 1 259.766 2.539 A 25.471 25.471 0 0 1 260.706 2.558 Q 261.835 2.6 263.379 2.734 Q 265.625 2.93 267.822 3.613 A 14.322 14.322 0 0 1 270.101 4.533 A 11.537 11.537 0 0 1 271.631 5.469 A 3.708 3.708 0 0 1 273.21 8.132 A 4.789 4.789 0 0 1 273.242 8.691 A 7.1 7.1 0 0 1 272.965 10.706 A 6.179 6.179 0 0 1 272.412 12.012 Q 271.582 13.477 270.215 14.502 A 13.735 13.735 0 0 1 267.188 16.211 A 17.616 17.616 0 0 1 265.15 16.913 A 14.694 14.694 0 0 1 263.965 17.188 A 496.415 496.415 0 0 1 263.425 33.301 A 445.59 445.59 0 0 1 263.135 38.477 A 331.826 331.826 0 0 1 261.771 54.242 A 368.721 368.721 0 0 1 261.133 59.668 Z M 243.274 11.978 A 6.042 6.042 0 0 0 244.531 8.301 A 9.06 9.06 0 0 0 244.515 7.757 Q 244.392 5.703 243.311 4.492 A 7.153 7.153 0 0 0 242.396 3.633 A 7.863 7.863 0 0 0 240.234 2.441 A 13.353 13.353 0 0 0 239.767 2.279 A 14.41 14.41 0 0 0 236.279 1.611 A 64.066 64.066 0 0 0 234.739 1.522 A 53.076 53.076 0 0 0 232.324 1.465 A 32.099 32.099 0 0 0 231.588 1.474 Q 229.745 1.516 226.807 1.758 A 103.92 103.92 0 0 0 223.071 2.136 A 136.73 136.73 0 0 0 218.994 2.686 A 83.898 83.898 0 0 0 210.4 4.443 A 55.703 55.703 0 0 0 207.251 5.354 A 45.251 45.251 0 0 0 202.49 7.178 A 24.626 24.626 0 0 0 199.428 8.817 A 17.914 17.914 0 0 0 196.631 10.986 A 9.115 9.115 0 0 0 196.253 11.369 A 6.772 6.772 0 0 0 194.336 16.113 A 4.704 4.704 0 0 0 194.341 16.337 A 3.64 3.64 0 0 0 195.605 18.994 A 8.518 8.518 0 0 0 196.547 19.716 A 9.766 9.766 0 0 0 198.633 20.752 A 17.18 17.18 0 0 0 202.295 21.631 A 48.15 48.15 0 0 0 202.467 21.653 Q 203.668 21.802 204.567 21.851 A 14.87 14.87 0 0 0 205.371 21.875 A 41.866 41.866 0 0 0 208.252 21.777 A 38.317 38.317 0 0 0 211.035 21.484 A 957.363 957.363 0 0 1 210.986 31.25 A 957.363 957.363 0 0 0 210.938 41.016 Q 210.938 46.973 211.035 52.881 Q 211.133 58.789 211.328 64.648 A 23.762 23.762 0 0 0 211.328 64.769 Q 211.338 66.578 211.621 68.799 A 17.405 17.405 0 0 0 212.744 73.145 A 11.056 11.056 0 0 0 212.864 73.43 A 9.531 9.531 0 0 0 215.088 76.611 A 5.072 5.072 0 0 0 217.414 77.836 A 7.377 7.377 0 0 0 219.141 78.027 A 6.768 6.768 0 0 0 219.795 77.996 A 5.161 5.161 0 0 0 222.754 76.758 A 8.862 8.862 0 0 0 225.049 73.633 A 15.893 15.893 0 0 0 226.221 69.678 A 28.105 28.105 0 0 0 226.466 67.784 A 21.103 21.103 0 0 0 226.563 65.82 A 156.421 156.421 0 0 0 226.367 58.008 A 158.391 158.391 0 0 1 226.172 50.098 A 255.22 255.22 0 0 1 226.611 35.107 A 335.937 335.937 0 0 1 227.832 20.117 A 25.534 25.534 0 0 0 229.223 19.779 Q 229.976 19.576 230.845 19.303 A 63.62 63.62 0 0 0 232.52 18.75 Q 235.352 17.773 238.037 16.26 A 22.159 22.159 0 0 0 239.486 15.37 A 18.574 18.574 0 0 0 242.627 12.744 A 8.235 8.235 0 0 0 243.274 11.978 Z M 178.027 39.648 L 178.027 36.816 Q 178.027 35.645 177.881 32.959 Q 177.734 30.273 177.246 27.588 A 20.444 20.444 0 0 0 176.551 24.826 A 16.177 16.177 0 0 0 175.732 22.803 Q 175.111 21.529 174.219 21.028 A 2.547 2.547 0 0 0 172.949 20.703 A 1.585 1.585 0 0 0 172.084 20.974 Q 171.59 21.291 171.123 21.978 A 6.075 6.075 0 0 0 171.094 22.022 A 11.235 11.235 0 0 0 170.362 23.306 Q 170.028 23.988 169.728 24.791 A 20.802 20.802 0 0 0 169.531 25.342 A 36.874 36.874 0 0 0 168.809 27.733 A 47.344 47.344 0 0 0 168.311 29.785 A 111.682 111.682 0 0 0 167.587 33.337 A 97.167 97.167 0 0 0 167.383 34.473 A 76.172 76.172 0 0 0 167.05 36.545 Q 166.907 37.528 166.81 38.409 A 45.505 45.505 0 0 0 166.797 38.525 A 403.233 403.233 0 0 1 166.705 39.365 Q 166.577 40.527 166.504 41.113 A 132.605 132.605 0 0 0 178.027 39.648 Z M 78.568 22.128 A 3.984 3.984 0 0 0 77.93 21.143 A 3.521 3.521 0 0 0 76.509 20.196 Q 75.522 19.824 74.121 19.824 Q 72.168 19.824 70.166 20.508 A 26.882 26.882 0 0 0 67.686 21.489 A 22.506 22.506 0 0 0 66.504 22.07 A 242.833 242.833 0 0 1 66.816 34.352 A 237.979 237.979 0 0 1 66.797 37.402 A 30.734 30.734 0 0 0 69.795 36.218 A 36.055 36.055 0 0 0 70.996 35.645 Q 73.145 34.57 74.951 33.008 Q 76.758 31.445 77.93 29.492 A 8.231 8.231 0 0 0 79.045 26.083 A 10.237 10.237 0 0 0 79.102 25 Q 79.102 23.286 78.568 22.128 Z" vector-effect="non-scaling-stroke"/></g></svg>