<svg width="249.219" height="79.103" viewBox="0 0 249.219 79.103" xmlns="http://www.w3.org/2000/svg"><g id="svgGroup" stroke-linecap="round" fill-rule="evenodd" font-size="9pt" stroke="#0f0e18" stroke-width="0.25mm" fill="#0f0e18" style="stroke:#0f0e18;stroke-width:0.25mm;fill:#0f0e18"><path d="M 46.777 17.871 L 46.777 19.141 Q 46.777 27.246 46.387 35.4 A 670.436 670.436 0 0 1 45.41 51.66 A 81.068 81.068 0 0 0 45.361 52.457 Q 45.311 53.344 45.261 54.504 A 266.411 266.411 0 0 0 45.215 55.615 Q 45.117 58.105 44.824 60.986 Q 44.531 63.867 44.043 66.797 A 25.103 25.103 0 0 1 43.274 70.087 A 20.613 20.613 0 0 1 42.529 72.119 A 13.087 13.087 0 0 1 41.357 74.292 A 10.179 10.179 0 0 1 39.893 76.025 A 5.532 5.532 0 0 1 36.083 77.538 A 7.154 7.154 0 0 1 35.938 77.539 A 8.179 8.179 0 0 1 33.784 77.265 A 6.942 6.942 0 0 1 32.275 76.66 Q 30.664 75.781 29.59 74.365 A 10.682 10.682 0 0 1 28.044 71.478 A 12.138 12.138 0 0 1 27.93 71.143 Q 27.344 69.336 27.344 67.383 A 108.953 108.953 0 0 1 27.539 60.889 A 106.9 106.9 0 0 1 28.125 54.395 L 18.457 55.371 Q 18.164 57.91 17.822 61.475 A 33.476 33.476 0 0 1 16.455 68.311 A 16.317 16.317 0 0 1 14.773 72.038 A 14.258 14.258 0 0 1 13.379 73.926 A 6.718 6.718 0 0 1 9.221 76.157 A 9.724 9.724 0 0 1 7.715 76.27 Q 5.469 76.27 4.004 75.244 A 7.626 7.626 0 0 1 1.66 72.607 A 12.261 12.261 0 0 1 0.532 69.675 A 14.123 14.123 0 0 1 0.391 69.043 A 20.338 20.338 0 0 1 0.055 66.678 A 16.877 16.877 0 0 1 0 65.332 A 139.3 139.3 0 0 1 0.488 53.662 A 231.401 231.401 0 0 0 1.172 41.992 A 311.201 311.201 0 0 0 1.328 32.117 A 314.781 314.781 0 0 0 1.318 29.639 A 315.277 315.277 0 0 1 1.309 27.156 A 319.139 319.139 0 0 1 1.465 17.188 A 124.178 124.178 0 0 0 1.531 15.553 Q 1.556 14.832 1.576 14.045 A 217.457 217.457 0 0 0 1.611 12.402 A 22.473 22.473 0 0 1 1.955 8.804 A 19.44 19.44 0 0 1 2.295 7.275 A 10.182 10.182 0 0 1 3.359 4.692 A 8.875 8.875 0 0 1 4.443 3.223 A 4.783 4.783 0 0 1 6.625 1.88 Q 7.66 1.563 8.984 1.563 A 12.81 12.81 0 0 1 11.409 1.777 Q 12.785 2.043 13.854 2.637 A 6.402 6.402 0 0 1 15.332 3.76 Q 17.48 5.957 18.359 9.229 A 26.12 26.12 0 0 1 19.217 15.027 A 29.779 29.779 0 0 1 19.238 16.162 L 19.238 22.754 A 147.781 147.781 0 0 1 19.043 30.42 A 11410.526 11410.526 0 0 0 18.652 37.988 L 29.102 36.426 A 22295.651 22295.651 0 0 1 29.297 26.953 Q 29.395 22.266 29.688 17.578 A 874.267 874.267 0 0 0 29.785 15.259 A 1050.308 1050.308 0 0 0 29.883 12.793 A 18.905 18.905 0 0 1 30.234 9.772 A 15.845 15.845 0 0 1 30.664 8.105 A 7.783 7.783 0 0 1 32.959 4.541 Q 34.57 3.125 37.793 3.125 A 7.808 7.808 0 0 1 39.773 3.363 A 5.743 5.743 0 0 1 42.236 4.688 A 11.55 11.55 0 0 1 44.832 8.201 A 13.283 13.283 0 0 1 44.971 8.496 Q 45.996 10.742 46.387 13.281 Q 46.777 15.82 46.777 17.871 Z M 95.053 62.84 A 7.222 7.222 0 0 0 95.801 59.668 A 6.986 6.986 0 0 0 95.771 59.027 A 7.619 7.619 0 0 0 95.264 56.934 A 9.424 9.424 0 0 0 95.069 56.474 A 8.12 8.12 0 0 0 93.848 54.541 Q 92.969 53.516 91.699 52.881 A 6.029 6.029 0 0 0 88.965 52.246 Q 87.695 52.246 85.059 52.881 A 79.421 79.421 0 0 0 83.728 53.214 A 90.853 90.853 0 0 0 79.59 54.395 A 235.923 235.923 0 0 0 78.189 54.834 A 208.959 208.959 0 0 0 74.17 56.152 A 2006.529 2006.529 0 0 1 73.979 56.217 Q 72.172 56.831 71.085 57.196 A 300.48 300.48 0 0 1 70.41 57.422 L 70.02 54.688 A 19.312 19.312 0 0 1 69.824 51.953 A 8.04 8.04 0 0 1 69.831 51.622 A 8.946 8.946 0 0 1 70.02 50.147 A 53.053 53.053 0 0 1 70.215 49.255 A 41.544 41.544 0 0 1 70.41 48.438 A 569.09 569.09 0 0 0 77.246 46.045 Q 80.664 44.824 83.789 43.164 Q 85.059 42.48 86.377 41.748 A 12.669 12.669 0 0 0 86.561 41.644 A 11.336 11.336 0 0 0 88.721 40.039 Q 89.746 39.063 90.381 37.793 A 5.782 5.782 0 0 0 90.858 36.42 A 7.373 7.373 0 0 0 91.016 34.863 Q 91.016 29.523 86.784 28.354 A 10.173 10.173 0 0 0 84.082 28.027 A 18.829 18.829 0 0 0 80.679 28.348 A 24.34 24.34 0 0 0 76.855 29.395 A 65.532 65.532 0 0 0 73.672 30.628 A 50.632 50.632 0 0 0 70.02 32.324 Q 70.215 29.98 70.654 27.686 A 271.444 271.444 0 0 0 71.484 23.145 A 74.073 74.073 0 0 1 71.713 23.047 Q 72.737 22.612 74.661 21.826 A 726.777 726.777 0 0 1 76.221 21.191 A 134.734 134.734 0 0 0 78.355 20.304 A 158.03 158.03 0 0 0 83.252 18.115 A 112.738 112.738 0 0 0 85.923 16.827 A 94.275 94.275 0 0 0 90.039 14.648 Q 93.164 12.891 94.141 11.621 Q 94.53 11.008 94.809 10.459 A 8.818 8.818 0 0 0 95.166 9.668 Q 95.374 9.132 95.456 8.452 A 7.867 7.867 0 0 0 95.508 7.52 Q 95.508 6.055 94.971 4.736 Q 94.434 3.418 93.506 2.344 Q 92.578 1.27 91.26 0.635 Q 89.941 0 88.477 0 A 12.022 12.022 0 0 0 87.972 0.011 Q 87.131 0.047 85.913 0.192 A 57.074 57.074 0 0 0 84.766 0.342 A 120.496 120.496 0 0 0 82.19 0.732 A 163.816 163.816 0 0 0 79.346 1.221 A 96.339 96.339 0 0 0 77.841 1.505 A 110.569 110.569 0 0 0 73.145 2.539 Q 69.922 3.32 67.139 4.199 Q 65.573 4.694 64.239 5.219 A 30.505 30.505 0 0 0 62.305 6.055 A 17.637 17.637 0 0 0 61.602 6.408 Q 60.129 7.192 59.57 7.91 A 20.876 20.876 0 0 0 57.528 11.325 A 27.745 27.745 0 0 0 56.006 15.283 Q 54.688 19.629 54.004 24.365 Q 53.32 29.102 53.076 33.789 A 223.199 223.199 0 0 0 53.012 35.086 Q 52.924 37 52.879 38.723 A 129.128 129.128 0 0 0 52.832 42.09 A 41.823 41.823 0 0 0 52.832 42.164 Q 52.833 42.892 52.859 44.214 A 336.34 336.34 0 0 0 52.881 45.215 A 118.075 118.075 0 0 0 52.897 45.832 Q 52.923 46.776 52.967 47.833 A 207.369 207.369 0 0 0 53.076 50.147 A 503.56 503.56 0 0 0 53.235 53.003 A 585.635 585.635 0 0 0 53.418 56.006 A 248.325 248.325 0 0 0 53.625 58.997 A 208.743 208.743 0 0 0 53.857 61.816 A 90.514 90.514 0 0 0 53.928 62.572 Q 54.037 63.685 54.163 64.676 A 50.62 50.62 0 0 0 54.443 66.602 A 29.498 29.498 0 0 0 54.493 66.893 Q 54.814 68.702 55.176 69.336 A 6.459 6.459 0 0 0 55.624 70.001 Q 55.954 70.433 56.392 70.878 A 14.012 14.012 0 0 0 57.373 71.777 A 17.648 17.648 0 0 0 57.588 71.954 A 19.082 19.082 0 0 0 60.742 74.023 A 28.662 28.662 0 0 0 61.206 74.262 A 25.803 25.803 0 0 0 64.453 75.635 A 15.479 15.479 0 0 0 65.26 75.887 Q 65.913 76.071 66.497 76.167 A 7.337 7.337 0 0 0 67.676 76.27 A 7.756 7.756 0 0 0 68.691 76.194 Q 70.575 75.943 73.73 74.854 A 86.433 86.433 0 0 0 76.323 73.911 A 101.517 101.517 0 0 0 82.227 71.436 A 79.543 79.543 0 0 0 85.413 69.9 A 65.756 65.756 0 0 0 90.234 67.188 Q 92.838 65.569 94.073 64.254 A 5.594 5.594 0 0 0 94.824 63.281 A 8.665 8.665 0 0 0 95.053 62.84 Z M 202.325 31.43 A 24.923 24.923 0 0 0 203.516 23.633 Q 203.516 19.043 202.246 14.893 A 24.75 24.75 0 0 0 202.04 14.25 A 21.608 21.608 0 0 0 198.438 7.568 A 18.227 18.227 0 0 0 192.09 2.539 Q 188.281 0.684 183.301 0.684 A 12.497 12.497 0 0 0 182.391 0.72 Q 181.11 0.814 179.245 1.151 A 66.304 66.304 0 0 0 177.393 1.514 Q 173.438 2.344 169.287 3.76 A 57.259 57.259 0 0 0 166.76 4.688 A 48.51 48.51 0 0 0 161.67 7.031 A 21.782 21.782 0 0 0 161.231 7.273 Q 158.14 9.02 157.227 10.938 A 4.401 4.401 0 0 0 156.97 11.491 Q 156.821 11.877 156.712 12.343 A 9.793 9.793 0 0 0 156.543 13.281 A 66.761 66.761 0 0 0 156.448 14.023 A 76.554 76.554 0 0 0 156.201 16.357 A 37.72 37.72 0 0 0 156.167 16.759 A 34.1 34.1 0 0 0 156.055 19.482 L 156.055 21.973 A 243.706 243.706 0 0 0 156.201 30.469 A 240.883 240.883 0 0 1 156.348 38.867 A 205.716 205.716 0 0 1 156.152 47.9 A 205.716 205.716 0 0 0 155.957 56.934 A 121.518 121.518 0 0 0 155.962 58.029 Q 155.98 59.963 156.055 62.842 A 42.612 42.612 0 0 0 156.885 70.215 A 20.392 20.392 0 0 0 157.544 72.686 A 15.994 15.994 0 0 0 159.375 76.465 A 7.267 7.267 0 0 0 159.543 76.707 Q 160.556 78.1 162.02 78.683 A 6.263 6.263 0 0 0 164.355 79.102 A 4.903 4.903 0 0 0 167.687 77.896 A 6.42 6.42 0 0 0 168.945 76.367 Q 170.605 73.633 171.436 69.922 A 48.602 48.602 0 0 0 172.51 62.451 A 581.811 581.811 0 0 0 172.616 60.777 Q 172.777 58.188 172.852 56.543 A 82.971 82.971 0 0 0 176.27 55.127 Q 177.93 54.395 179.688 53.809 Q 180.521 55.475 181.417 57.856 A 82.49 82.49 0 0 1 182.373 60.547 A 119.51 119.51 0 0 0 185.498 68.799 A 38.42 38.42 0 0 0 187.117 72.186 A 29.104 29.104 0 0 0 189.404 75.781 Q 191.602 78.711 194.629 78.711 A 8.322 8.322 0 0 0 196.448 78.525 A 4.958 4.958 0 0 0 199.756 76.221 A 10.181 10.181 0 0 0 200.648 74.349 A 11.061 11.061 0 0 0 201.27 70.605 A 23.83 23.83 0 0 0 201.062 67.542 A 32.047 32.047 0 0 0 200.439 64.209 A 56.539 56.539 0 0 0 198.291 57.275 Q 196.973 53.809 195.313 50.684 Q 194.456 49.072 193.626 47.669 A 53.792 53.792 0 0 0 192.09 45.215 A 38.009 38.009 0 0 0 192.729 44.697 A 33.406 33.406 0 0 0 200.391 35.742 A 22.411 22.411 0 0 0 202.325 31.43 Z M 149.464 62.122 A 27.74 27.74 0 0 0 149.512 60.547 A 97.099 97.099 0 0 0 148.633 47.51 A 207.072 207.072 0 0 0 146.484 34.668 A 8603.355 8603.355 0 0 0 146.344 33.911 Q 146.129 32.752 145.889 31.454 A 15097.172 15097.172 0 0 0 145.361 28.613 A 93.002 93.002 0 0 0 145.281 28.185 A 101.372 101.372 0 0 0 143.799 21.631 A 61.101 61.101 0 0 0 141.504 14.6 A 29.742 29.742 0 0 0 140.966 13.322 A 25.776 25.776 0 0 0 138.086 8.398 A 19.316 19.316 0 0 0 137.761 7.978 A 16.836 16.836 0 0 0 133.301 4.004 A 11.031 11.031 0 0 0 130.12 2.709 A 14.002 14.002 0 0 0 126.855 2.344 Q 123.047 2.344 119.922 4.297 A 20.167 20.167 0 0 0 118.541 5.242 A 22.098 22.098 0 0 0 114.355 9.375 A 35.047 35.047 0 0 0 112.882 11.409 A 40.681 40.681 0 0 0 110.01 16.455 A 76.985 76.985 0 0 0 106.689 24.463 A 106.688 106.688 0 0 0 106.009 26.474 A 93.511 93.511 0 0 0 104.297 32.324 A 200.396 200.396 0 0 0 103.725 34.609 Q 103.458 35.704 103.229 36.704 A 109.992 109.992 0 0 0 102.734 38.965 A 203.2 203.2 0 0 0 100.684 49.756 A 68.523 68.523 0 0 0 99.805 60.742 Q 99.805 61.987 99.887 63.699 A 112.211 112.211 0 0 0 99.951 64.893 A 21.774 21.774 0 0 0 100.781 69.727 A 14.041 14.041 0 0 0 101.243 71.062 A 11.451 11.451 0 0 0 102.783 73.779 Q 104.102 75.488 106.445 75.488 Q 109.473 75.488 111.572 73.242 A 16.87 16.87 0 0 0 112.706 71.894 A 18.905 18.905 0 0 0 114.99 67.92 Q 116.309 64.844 116.943 61.523 Q 117.578 58.203 117.773 55.957 A 376.101 376.101 0 0 0 131.641 53.906 A 668.763 668.763 0 0 1 131.689 55.045 Q 131.773 57.045 131.885 59.961 Q 132.031 63.77 132.813 67.432 A 20.561 20.561 0 0 0 133.543 70.034 A 15.973 15.973 0 0 0 135.4 73.73 Q 137.207 76.367 140.82 76.367 A 7.785 7.785 0 0 0 141.906 76.294 A 5.55 5.55 0 0 0 145.215 74.658 A 11.36 11.36 0 0 0 146.451 73.141 A 13.453 13.453 0 0 0 147.852 70.459 A 21.584 21.584 0 0 0 149.17 65.234 Q 149.384 63.525 149.464 62.122 Z M 247.962 11.978 A 6.042 6.042 0 0 0 249.219 8.301 A 9.06 9.06 0 0 0 249.203 7.757 Q 249.079 5.703 247.998 4.492 A 7.153 7.153 0 0 0 247.084 3.633 A 7.863 7.863 0 0 0 244.922 2.441 A 13.353 13.353 0 0 0 244.454 2.279 A 14.41 14.41 0 0 0 240.967 1.611 A 64.066 64.066 0 0 0 239.426 1.522 A 53.076 53.076 0 0 0 237.012 1.465 A 32.099 32.099 0 0 0 236.275 1.474 Q 234.432 1.516 231.494 1.758 A 103.92 103.92 0 0 0 227.759 2.136 A 136.73 136.73 0 0 0 223.682 2.686 A 83.898 83.898 0 0 0 215.088 4.443 A 55.703 55.703 0 0 0 211.938 5.354 A 45.251 45.251 0 0 0 207.178 7.178 A 24.626 24.626 0 0 0 204.115 8.817 A 17.914 17.914 0 0 0 201.318 10.986 A 9.115 9.115 0 0 0 200.941 11.369 A 6.772 6.772 0 0 0 199.023 16.113 A 4.704 4.704 0 0 0 199.029 16.337 A 3.64 3.64 0 0 0 200.293 18.994 A 8.518 8.518 0 0 0 201.235 19.716 A 9.766 9.766 0 0 0 203.32 20.752 A 17.18 17.18 0 0 0 206.982 21.631 A 48.15 48.15 0 0 0 207.155 21.653 Q 208.356 21.802 209.255 21.851 A 14.87 14.87 0 0 0 210.059 21.875 A 41.866 41.866 0 0 0 212.939 21.777 A 38.317 38.317 0 0 0 215.723 21.484 A 957.363 957.363 0 0 1 215.674 31.25 A 957.363 957.363 0 0 0 215.625 41.016 Q 215.625 46.973 215.723 52.881 Q 215.82 58.789 216.016 64.648 A 23.762 23.762 0 0 0 216.016 64.769 Q 216.025 66.578 216.309 68.799 A 17.405 17.405 0 0 0 217.432 73.145 A 11.056 11.056 0 0 0 217.552 73.43 A 9.531 9.531 0 0 0 219.775 76.611 A 5.072 5.072 0 0 0 222.102 77.836 A 7.377 7.377 0 0 0 223.828 78.027 A 6.768 6.768 0 0 0 224.483 77.996 A 5.161 5.161 0 0 0 227.441 76.758 A 8.862 8.862 0 0 0 229.736 73.633 A 15.893 15.893 0 0 0 230.908 69.678 A 28.105 28.105 0 0 0 231.154 67.784 A 21.103 21.103 0 0 0 231.25 65.82 A 156.421 156.421 0 0 0 231.055 58.008 A 158.391 158.391 0 0 1 230.859 50.098 A 255.22 255.22 0 0 1 231.299 35.107 A 335.937 335.937 0 0 1 232.52 20.117 A 25.534 25.534 0 0 0 233.911 19.779 Q 234.664 19.576 235.532 19.303 A 63.62 63.62 0 0 0 237.207 18.75 Q 240.039 17.773 242.725 16.26 A 22.159 22.159 0 0 0 244.173 15.37 A 18.574 18.574 0 0 0 247.314 12.744 A 8.235 8.235 0 0 0 247.962 11.978 Z M 130.664 39.648 L 130.664 36.816 Q 130.664 35.645 130.518 32.959 Q 130.371 30.273 129.883 27.588 A 20.444 20.444 0 0 0 129.188 24.826 A 16.177 16.177 0 0 0 128.369 22.803 Q 127.747 21.529 126.856 21.028 A 2.547 2.547 0 0 0 125.586 20.703 A 1.585 1.585 0 0 0 124.721 20.974 Q 124.227 21.291 123.76 21.978 A 6.075 6.075 0 0 0 123.73 22.022 A 11.235 11.235 0 0 0 122.999 23.306 Q 122.664 23.988 122.364 24.791 A 20.802 20.802 0 0 0 122.168 25.342 A 36.874 36.874 0 0 0 121.445 27.733 A 47.344 47.344 0 0 0 120.947 29.785 A 111.682 111.682 0 0 0 120.224 33.337 A 97.167 97.167 0 0 0 120.02 34.473 A 76.172 76.172 0 0 0 119.687 36.545 Q 119.544 37.528 119.446 38.409 A 45.505 45.505 0 0 0 119.434 38.525 A 403.233 403.233 0 0 1 119.342 39.365 Q 119.214 40.527 119.141 41.113 A 132.605 132.605 0 0 0 130.664 39.648 Z M 184.915 22.128 A 3.984 3.984 0 0 0 184.277 21.143 A 3.521 3.521 0 0 0 182.857 20.196 Q 181.87 19.824 180.469 19.824 Q 178.516 19.824 176.514 20.508 A 26.882 26.882 0 0 0 174.033 21.489 A 22.506 22.506 0 0 0 172.852 22.07 A 242.833 242.833 0 0 1 173.164 34.352 A 237.979 237.979 0 0 1 173.145 37.402 A 30.734 30.734 0 0 0 176.143 36.218 A 36.055 36.055 0 0 0 177.344 35.645 Q 179.492 34.57 181.299 33.008 Q 183.105 31.445 184.277 29.492 A 8.231 8.231 0 0 0 185.393 26.083 A 10.237 10.237 0 0 0 185.449 25 Q 185.449 23.286 184.915 22.128 Z" vector-effect="non-scaling-stroke"/></g></svg>