<svg width="308.594" height="80.275" viewBox="0 0 308.594 80.275" xmlns="http://www.w3.org/2000/svg"><g id="svgGroup" stroke-linecap="round" fill-rule="evenodd" font-size="9pt" stroke="#0f0e18" stroke-width="0.25mm" fill="#0f0e18" style="stroke:#0f0e18;stroke-width:0.25mm;fill:#0f0e18"><path d="M 180.698 64.013 A 7.222 7.222 0 0 0 181.445 60.84 A 6.986 6.986 0 0 0 181.416 60.199 A 7.619 7.619 0 0 0 180.908 58.106 A 9.424 9.424 0 0 0 180.713 57.646 A 8.12 8.12 0 0 0 179.492 55.713 Q 178.613 54.688 177.344 54.053 A 6.029 6.029 0 0 0 174.609 53.418 Q 173.34 53.418 170.703 54.053 A 79.421 79.421 0 0 0 169.373 54.386 A 90.853 90.853 0 0 0 165.234 55.567 A 235.923 235.923 0 0 0 163.834 56.006 A 208.959 208.959 0 0 0 159.814 57.325 A 2006.529 2006.529 0 0 1 159.623 57.39 Q 157.817 58.003 156.729 58.368 A 300.48 300.48 0 0 1 156.055 58.594 L 155.664 55.86 A 19.312 19.312 0 0 1 155.469 53.125 A 8.04 8.04 0 0 1 155.476 52.794 A 8.946 8.946 0 0 1 155.664 51.319 A 53.053 53.053 0 0 1 155.859 50.428 A 41.544 41.544 0 0 1 156.055 49.61 A 569.09 569.09 0 0 0 162.891 47.217 Q 166.309 45.997 169.434 44.336 Q 170.703 43.653 172.021 42.92 A 12.669 12.669 0 0 0 172.205 42.816 A 11.336 11.336 0 0 0 174.365 41.211 Q 175.391 40.235 176.025 38.965 A 5.782 5.782 0 0 0 176.503 37.592 A 7.373 7.373 0 0 0 176.66 36.036 Q 176.66 30.695 172.428 29.527 A 10.173 10.173 0 0 0 169.727 29.2 A 18.829 18.829 0 0 0 166.324 29.52 A 24.34 24.34 0 0 0 162.5 30.567 A 65.532 65.532 0 0 0 159.317 31.801 A 50.632 50.632 0 0 0 155.664 33.497 Q 155.859 31.153 156.299 28.858 A 271.444 271.444 0 0 0 157.129 24.317 A 74.073 74.073 0 0 1 157.358 24.219 Q 158.381 23.785 160.306 22.998 A 726.777 726.777 0 0 1 161.865 22.364 A 134.734 134.734 0 0 0 164 21.476 A 158.03 158.03 0 0 0 168.896 19.288 A 112.738 112.738 0 0 0 171.568 17.999 A 94.275 94.275 0 0 0 175.684 15.821 Q 178.809 14.063 179.785 12.793 Q 180.175 12.181 180.454 11.632 A 8.818 8.818 0 0 0 180.811 10.84 Q 181.019 10.305 181.1 9.624 A 7.867 7.867 0 0 0 181.152 8.692 Q 181.152 7.227 180.615 5.909 Q 180.078 4.59 179.15 3.516 Q 178.223 2.442 176.904 1.807 Q 175.586 1.172 174.121 1.172 A 12.022 12.022 0 0 0 173.617 1.184 Q 172.776 1.219 171.558 1.365 A 57.074 57.074 0 0 0 170.41 1.514 A 120.496 120.496 0 0 0 167.834 1.905 A 163.816 163.816 0 0 0 164.99 2.393 A 96.339 96.339 0 0 0 163.486 2.677 A 110.569 110.569 0 0 0 158.789 3.711 Q 155.566 4.493 152.783 5.372 Q 151.218 5.866 149.884 6.391 A 30.505 30.505 0 0 0 147.949 7.227 A 17.637 17.637 0 0 0 147.246 7.58 Q 145.774 8.364 145.215 9.082 A 20.876 20.876 0 0 0 143.173 12.497 A 27.745 27.745 0 0 0 141.65 16.456 Q 140.332 20.801 139.648 25.538 Q 138.965 30.274 138.721 34.961 A 223.199 223.199 0 0 0 138.657 36.258 Q 138.568 38.172 138.523 39.895 A 129.128 129.128 0 0 0 138.477 43.262 A 41.823 41.823 0 0 0 138.477 43.337 Q 138.478 44.064 138.504 45.386 A 336.34 336.34 0 0 0 138.525 46.387 A 118.075 118.075 0 0 0 138.541 47.004 Q 138.567 47.948 138.611 49.005 A 207.369 207.369 0 0 0 138.721 51.319 A 503.56 503.56 0 0 0 138.879 54.175 A 585.635 585.635 0 0 0 139.063 57.178 A 248.325 248.325 0 0 0 139.27 60.169 A 208.743 208.743 0 0 0 139.502 62.989 A 90.514 90.514 0 0 0 139.573 63.744 Q 139.681 64.857 139.808 65.849 A 50.62 50.62 0 0 0 140.088 67.774 A 29.498 29.498 0 0 0 140.138 68.065 Q 140.458 69.874 140.82 70.508 A 6.459 6.459 0 0 0 141.269 71.173 Q 141.599 71.605 142.037 72.05 A 14.012 14.012 0 0 0 143.018 72.95 A 17.648 17.648 0 0 0 143.232 73.127 A 19.082 19.082 0 0 0 146.387 75.196 A 28.662 28.662 0 0 0 146.851 75.435 A 25.803 25.803 0 0 0 150.098 76.807 A 15.479 15.479 0 0 0 150.905 77.06 Q 151.557 77.244 152.141 77.339 A 7.337 7.337 0 0 0 153.32 77.442 A 7.756 7.756 0 0 0 154.336 77.366 Q 156.22 77.115 159.375 76.026 A 86.433 86.433 0 0 0 161.967 75.084 A 101.517 101.517 0 0 0 167.871 72.608 A 79.543 79.543 0 0 0 171.057 71.072 A 65.756 65.756 0 0 0 175.879 68.36 Q 178.483 66.741 179.718 65.427 A 5.594 5.594 0 0 0 180.469 64.454 A 8.665 8.665 0 0 0 180.698 64.013 Z M 46.368 32.602 A 24.923 24.923 0 0 0 47.559 24.805 Q 47.559 20.215 46.289 16.065 A 24.75 24.75 0 0 0 46.083 15.422 A 21.608 21.608 0 0 0 42.48 8.741 A 18.227 18.227 0 0 0 36.133 3.711 Q 32.324 1.856 27.344 1.856 A 12.497 12.497 0 0 0 26.434 1.893 Q 25.153 1.987 23.288 2.323 A 66.304 66.304 0 0 0 21.436 2.686 Q 17.48 3.516 13.33 4.932 A 57.259 57.259 0 0 0 10.803 5.86 A 48.51 48.51 0 0 0 5.713 8.204 A 21.782 21.782 0 0 0 5.274 8.445 Q 2.183 10.192 1.27 12.11 A 4.401 4.401 0 0 0 1.013 12.663 Q 0.864 13.049 0.755 13.516 A 9.793 9.793 0 0 0 0.586 14.454 A 66.761 66.761 0 0 0 0.491 15.195 A 76.554 76.554 0 0 0 0.244 17.53 A 37.72 37.72 0 0 0 0.21 17.931 A 34.1 34.1 0 0 0 0.098 20.655 L 0.098 23.145 A 243.706 243.706 0 0 0 0.244 31.641 A 240.883 240.883 0 0 1 0.391 40.039 A 205.716 205.716 0 0 1 0.195 49.073 A 205.716 205.716 0 0 0 0 58.106 A 121.518 121.518 0 0 0 0.005 59.201 Q 0.023 61.136 0.098 64.014 A 42.612 42.612 0 0 0 0.928 71.387 A 20.392 20.392 0 0 0 1.587 73.858 A 15.994 15.994 0 0 0 3.418 77.637 A 7.267 7.267 0 0 0 3.586 77.879 Q 4.599 79.273 6.063 79.855 A 6.263 6.263 0 0 0 8.398 80.274 A 4.903 4.903 0 0 0 11.73 79.068 A 6.42 6.42 0 0 0 12.988 77.539 Q 14.648 74.805 15.479 71.094 A 48.602 48.602 0 0 0 16.553 63.623 A 581.811 581.811 0 0 0 16.659 61.95 Q 16.82 59.36 16.895 57.715 A 82.971 82.971 0 0 0 20.313 56.299 Q 21.973 55.567 23.73 54.981 Q 24.564 56.647 25.46 59.028 A 82.49 82.49 0 0 1 26.416 61.719 A 119.51 119.51 0 0 0 29.541 69.971 A 38.42 38.42 0 0 0 31.16 73.358 A 29.104 29.104 0 0 0 33.447 76.954 Q 35.645 79.883 38.672 79.883 A 8.322 8.322 0 0 0 40.491 79.697 A 4.958 4.958 0 0 0 43.799 77.393 A 10.181 10.181 0 0 0 44.691 75.521 A 11.061 11.061 0 0 0 45.313 71.778 A 23.83 23.83 0 0 0 45.105 68.714 A 32.047 32.047 0 0 0 44.482 65.381 A 56.539 56.539 0 0 0 42.334 58.448 Q 41.016 54.981 39.355 51.856 Q 38.499 50.245 37.669 48.841 A 53.792 53.792 0 0 0 36.133 46.387 A 38.009 38.009 0 0 0 36.772 45.87 A 33.406 33.406 0 0 0 44.434 36.914 A 22.411 22.411 0 0 0 46.368 32.602 Z M 308.546 63.294 A 27.74 27.74 0 0 0 308.594 61.719 A 97.099 97.099 0 0 0 307.715 48.682 A 207.072 207.072 0 0 0 305.566 35.84 A 8603.355 8603.355 0 0 0 305.426 35.083 Q 305.212 33.925 304.971 32.627 A 15097.172 15097.172 0 0 0 304.443 29.786 A 93.002 93.002 0 0 0 304.363 29.358 A 101.372 101.372 0 0 0 302.881 22.803 A 61.101 61.101 0 0 0 300.586 15.772 A 29.742 29.742 0 0 0 300.048 14.494 A 25.776 25.776 0 0 0 297.168 9.571 A 19.316 19.316 0 0 0 296.843 9.15 A 16.836 16.836 0 0 0 292.383 5.176 A 11.031 11.031 0 0 0 289.202 3.881 A 14.002 14.002 0 0 0 285.938 3.516 Q 282.129 3.516 279.004 5.469 A 20.167 20.167 0 0 0 277.623 6.414 A 22.098 22.098 0 0 0 273.438 10.547 A 35.047 35.047 0 0 0 271.964 12.581 A 40.681 40.681 0 0 0 269.092 17.627 A 76.985 76.985 0 0 0 265.771 25.635 A 106.688 106.688 0 0 0 265.091 27.646 A 93.511 93.511 0 0 0 263.379 33.497 A 200.396 200.396 0 0 0 262.807 35.782 Q 262.54 36.876 262.311 37.876 A 109.992 109.992 0 0 0 261.816 40.137 A 203.2 203.2 0 0 0 259.766 50.928 A 68.523 68.523 0 0 0 258.887 61.914 Q 258.887 63.16 258.969 64.872 A 112.211 112.211 0 0 0 259.033 66.065 A 21.774 21.774 0 0 0 259.863 70.899 A 14.041 14.041 0 0 0 260.325 72.235 A 11.451 11.451 0 0 0 261.865 74.952 Q 263.184 76.661 265.527 76.661 Q 268.555 76.661 270.654 74.414 A 16.87 16.87 0 0 0 271.788 73.066 A 18.905 18.905 0 0 0 274.072 69.092 Q 275.391 66.016 276.025 62.696 Q 276.66 59.375 276.855 57.129 A 376.101 376.101 0 0 0 290.723 55.079 A 668.763 668.763 0 0 1 290.771 56.217 Q 290.855 58.217 290.967 61.133 Q 291.113 64.942 291.895 68.604 A 20.561 20.561 0 0 0 292.625 71.206 A 15.973 15.973 0 0 0 294.482 74.903 Q 296.289 77.539 299.902 77.539 A 7.785 7.785 0 0 0 300.989 77.466 A 5.55 5.55 0 0 0 304.297 75.831 A 11.36 11.36 0 0 0 305.533 74.313 A 13.453 13.453 0 0 0 306.934 71.631 A 21.584 21.584 0 0 0 308.252 66.407 Q 308.466 64.698 308.546 63.294 Z M 226.868 13.15 A 6.042 6.042 0 0 0 228.125 9.473 A 9.06 9.06 0 0 0 228.109 8.929 Q 227.986 6.875 226.904 5.664 A 7.153 7.153 0 0 0 225.99 4.805 A 7.863 7.863 0 0 0 223.828 3.614 A 13.353 13.353 0 0 0 223.36 3.451 A 14.41 14.41 0 0 0 219.873 2.784 A 64.066 64.066 0 0 0 218.333 2.694 A 53.076 53.076 0 0 0 215.918 2.637 A 32.099 32.099 0 0 0 215.182 2.646 Q 213.338 2.689 210.4 2.93 A 103.92 103.92 0 0 0 206.665 3.309 A 136.73 136.73 0 0 0 202.588 3.858 A 83.898 83.898 0 0 0 193.994 5.616 A 55.703 55.703 0 0 0 190.845 6.527 A 45.251 45.251 0 0 0 186.084 8.35 A 24.626 24.626 0 0 0 183.021 9.989 A 17.914 17.914 0 0 0 180.225 12.159 A 9.115 9.115 0 0 0 179.847 12.542 A 6.772 6.772 0 0 0 177.93 17.286 A 4.704 4.704 0 0 0 177.935 17.51 A 3.64 3.64 0 0 0 179.199 20.166 A 8.518 8.518 0 0 0 180.141 20.888 A 9.766 9.766 0 0 0 182.227 21.924 A 17.18 17.18 0 0 0 185.889 22.803 A 48.15 48.15 0 0 0 186.061 22.825 Q 187.262 22.975 188.161 23.023 A 14.87 14.87 0 0 0 188.965 23.047 A 41.866 41.866 0 0 0 191.846 22.95 A 38.317 38.317 0 0 0 194.629 22.657 A 957.363 957.363 0 0 1 194.58 32.422 A 957.363 957.363 0 0 0 194.531 42.188 Q 194.531 48.145 194.629 54.053 Q 194.727 59.961 194.922 65.821 A 23.762 23.762 0 0 0 194.922 65.941 Q 194.931 67.75 195.215 69.971 A 17.405 17.405 0 0 0 196.338 74.317 A 11.056 11.056 0 0 0 196.458 74.602 A 9.531 9.531 0 0 0 198.682 77.784 A 5.072 5.072 0 0 0 201.008 79.009 A 7.377 7.377 0 0 0 202.734 79.2 A 6.768 6.768 0 0 0 203.389 79.169 A 5.161 5.161 0 0 0 206.348 77.93 A 8.862 8.862 0 0 0 208.643 74.805 A 15.893 15.893 0 0 0 209.814 70.85 A 28.105 28.105 0 0 0 210.06 68.957 A 21.103 21.103 0 0 0 210.156 66.993 A 156.421 156.421 0 0 0 209.961 59.18 A 158.391 158.391 0 0 1 209.766 51.27 A 255.22 255.22 0 0 1 210.205 36.28 A 335.937 335.937 0 0 1 211.426 21.289 A 25.534 25.534 0 0 0 212.817 20.952 Q 213.57 20.748 214.439 20.475 A 63.62 63.62 0 0 0 216.113 19.922 Q 218.945 18.946 221.631 17.432 A 22.159 22.159 0 0 0 223.08 16.542 A 18.574 18.574 0 0 0 226.221 13.916 A 8.235 8.235 0 0 0 226.868 13.15 Z M 264.075 13.15 A 6.042 6.042 0 0 0 265.332 9.473 A 9.06 9.06 0 0 0 265.316 8.929 Q 265.193 6.875 264.111 5.664 A 7.153 7.153 0 0 0 263.197 4.805 A 7.863 7.863 0 0 0 261.035 3.614 A 13.353 13.353 0 0 0 260.567 3.451 A 14.41 14.41 0 0 0 257.08 2.784 A 64.066 64.066 0 0 0 255.54 2.694 A 53.076 53.076 0 0 0 253.125 2.637 A 32.099 32.099 0 0 0 252.389 2.646 Q 250.545 2.689 247.607 2.93 A 103.92 103.92 0 0 0 243.872 3.309 A 136.73 136.73 0 0 0 239.795 3.858 A 83.898 83.898 0 0 0 231.201 5.616 A 55.703 55.703 0 0 0 228.052 6.527 A 45.251 45.251 0 0 0 223.291 8.35 A 24.626 24.626 0 0 0 220.228 9.989 A 17.914 17.914 0 0 0 217.432 12.159 A 9.115 9.115 0 0 0 217.054 12.542 A 6.772 6.772 0 0 0 215.137 17.286 A 4.704 4.704 0 0 0 215.142 17.51 A 3.64 3.64 0 0 0 216.406 20.166 A 8.518 8.518 0 0 0 217.348 20.888 A 9.766 9.766 0 0 0 219.434 21.924 A 17.18 17.18 0 0 0 223.096 22.803 A 48.15 48.15 0 0 0 223.268 22.825 Q 224.469 22.975 225.368 23.023 A 14.87 14.87 0 0 0 226.172 23.047 A 41.866 41.866 0 0 0 229.053 22.95 A 38.317 38.317 0 0 0 231.836 22.657 A 957.363 957.363 0 0 1 231.787 32.422 A 957.363 957.363 0 0 0 231.738 42.188 Q 231.738 48.145 231.836 54.053 Q 231.934 59.961 232.129 65.821 A 23.762 23.762 0 0 0 232.129 65.941 Q 232.138 67.75 232.422 69.971 A 17.405 17.405 0 0 0 233.545 74.317 A 11.056 11.056 0 0 0 233.665 74.602 A 9.531 9.531 0 0 0 235.889 77.784 A 5.072 5.072 0 0 0 238.215 79.009 A 7.377 7.377 0 0 0 239.941 79.2 A 6.768 6.768 0 0 0 240.596 79.169 A 5.161 5.161 0 0 0 243.555 77.93 A 8.862 8.862 0 0 0 245.85 74.805 A 15.893 15.893 0 0 0 247.021 70.85 A 28.105 28.105 0 0 0 247.267 68.957 A 21.103 21.103 0 0 0 247.363 66.993 A 156.421 156.421 0 0 0 247.168 59.18 A 158.391 158.391 0 0 1 246.973 51.27 A 255.22 255.22 0 0 1 247.412 36.28 A 335.937 335.937 0 0 1 248.633 21.289 A 25.534 25.534 0 0 0 250.024 20.952 Q 250.777 20.748 251.646 20.475 A 63.62 63.62 0 0 0 253.32 19.922 Q 256.152 18.946 258.838 17.432 A 22.159 22.159 0 0 0 260.287 16.542 A 18.574 18.574 0 0 0 263.428 13.916 A 8.235 8.235 0 0 0 264.075 13.15 Z M 134.033 11.524 A 5.829 5.829 0 0 0 135.449 7.618 A 9.451 9.451 0 0 0 135.418 6.84 A 6.714 6.714 0 0 0 133.008 2.051 A 8.535 8.535 0 0 0 130.414 0.546 A 9.505 9.505 0 0 0 127.148 0 Q 122.852 0 118.457 2.539 A 32.99 32.99 0 0 0 110.547 8.936 Q 107.031 12.793 104.785 17.432 A 24.515 24.515 0 0 0 103.25 21.407 A 17.756 17.756 0 0 0 102.539 26.27 A 11.85 11.85 0 0 0 103.024 29.611 A 14.422 14.422 0 0 0 104.541 33.008 A 69.558 69.558 0 0 0 108.984 39.502 A 133.089 133.089 0 0 1 110.467 41.467 A 113.029 113.029 0 0 1 113.428 45.655 A 15.85 15.85 0 0 1 113.642 45.982 Q 114.369 47.124 114.801 48.244 A 8.92 8.92 0 0 1 115.43 51.465 A 7.423 7.423 0 0 1 114.355 55.323 A 18.234 18.234 0 0 1 113.862 56.106 A 20.461 20.461 0 0 1 111.719 58.789 A 43.828 43.828 0 0 1 110.709 59.827 A 51.137 51.137 0 0 1 108.252 62.11 A 42.159 42.159 0 0 0 107.752 62.553 A 37.768 37.768 0 0 0 104.785 65.528 A 23.504 23.504 0 0 0 104.379 65.997 A 20.868 20.868 0 0 0 102.148 69.19 A 8.305 8.305 0 0 0 101.074 73.34 A 8.211 8.211 0 0 0 101.157 74.527 A 5.395 5.395 0 0 0 103.418 78.321 A 8.942 8.942 0 0 0 105.115 79.268 A 9.358 9.358 0 0 0 108.789 79.981 A 11.525 11.525 0 0 0 111.749 79.581 A 15.131 15.131 0 0 0 114.453 78.565 A 24.087 24.087 0 0 0 115.903 77.802 A 27.019 27.019 0 0 0 120.068 74.854 A 37.498 37.498 0 0 0 120.777 74.233 A 41.298 41.298 0 0 0 125.146 69.629 A 46.362 46.362 0 0 0 125.184 69.584 A 42.54 42.54 0 0 0 129.297 63.575 A 40.092 40.092 0 0 0 130.155 61.967 A 34.324 34.324 0 0 0 132.08 57.373 A 25.683 25.683 0 0 0 132.341 56.544 Q 132.704 55.318 132.895 54.199 A 13.982 13.982 0 0 0 133.105 51.856 Q 133.105 48.34 132.129 45.704 A 25.156 25.156 0 0 0 131.579 44.341 A 21.336 21.336 0 0 0 129.736 40.967 Q 128.32 38.868 126.611 37.159 A 79.276 79.276 0 0 1 125.371 35.891 A 66.341 66.341 0 0 1 123.486 33.838 A 24.047 24.047 0 0 1 122.644 32.826 A 20.388 20.388 0 0 1 121.094 30.567 A 6.954 6.954 0 0 1 120.589 29.519 A 7.406 7.406 0 0 1 120.117 26.856 A 10.514 10.514 0 0 1 120.167 25.819 A 8.525 8.525 0 0 1 121.094 22.657 A 13.293 13.293 0 0 1 123.633 19.288 Q 125.195 17.774 127.051 16.553 Q 128.906 15.332 130.664 14.258 Q 132.617 13.184 134.033 11.524 Z M 67.773 78.65 A 20.051 20.051 0 0 0 73.34 79.395 Q 79.59 79.395 84.229 76.368 A 23.115 23.115 0 0 0 87.233 74.032 A 25.772 25.772 0 0 0 91.943 68.164 A 36.016 36.016 0 0 0 94.336 63.327 A 44.704 44.704 0 0 0 96.533 56.202 A 60.051 60.051 0 0 0 97.231 52.537 A 68.497 68.497 0 0 0 98.047 41.797 A 84.203 84.203 0 0 0 96.924 28.125 A 53.733 53.733 0 0 0 96.029 23.781 A 43.971 43.971 0 0 0 93.213 15.772 A 28.834 28.834 0 0 0 92.271 13.936 A 24.028 24.028 0 0 0 86.279 6.788 A 15.306 15.306 0 0 0 80.64 3.961 A 19.794 19.794 0 0 0 75.488 3.321 A 22.85 22.85 0 0 0 73.359 3.418 A 17.862 17.862 0 0 0 64.063 6.934 A 27.281 27.281 0 0 0 61.485 9.145 A 29.941 29.941 0 0 0 56.152 16.211 A 41.984 41.984 0 0 0 54.194 20.267 A 48.954 48.954 0 0 0 51.514 28.907 A 65.758 65.758 0 0 0 50 42.774 A 74.151 74.151 0 0 0 50.035 45.046 A 65.617 65.617 0 0 0 51.416 56.739 A 46.84 46.84 0 0 0 52.746 61.681 A 36.648 36.648 0 0 0 55.713 68.409 A 27.669 27.669 0 0 0 56.65 69.93 A 23.177 23.177 0 0 0 62.988 76.416 A 16.705 16.705 0 0 0 67.773 78.65 Z M 74.512 24.903 A 4.077 4.077 0 0 0 71.505 26.19 A 5.444 5.444 0 0 0 71.338 26.368 A 9.649 9.649 0 0 0 70.164 28.004 Q 69.701 28.806 69.315 29.771 A 17.03 17.03 0 0 0 69.141 30.225 A 22.445 22.445 0 0 0 68.306 33.102 A 28.786 28.786 0 0 0 67.871 35.596 Q 67.48 38.575 67.48 41.602 A 53.553 53.553 0 0 0 67.92 48.438 A 39.627 39.627 0 0 0 68.469 51.685 A 30.122 30.122 0 0 0 69.238 54.59 A 18.397 18.397 0 0 0 69.992 56.563 Q 70.432 57.532 70.949 58.314 A 9.608 9.608 0 0 0 71.436 58.985 A 4.937 4.937 0 0 0 72.452 59.964 A 3.662 3.662 0 0 0 74.609 60.645 A 3.606 3.606 0 0 0 77.475 59.281 A 5.705 5.705 0 0 0 78.027 58.497 Q 79.297 56.348 80.029 53.321 A 39.095 39.095 0 0 0 81.006 47.071 A 113.074 113.074 0 0 0 81.113 45.527 Q 81.246 43.382 81.25 41.804 A 38.454 38.454 0 0 0 81.25 41.7 A 45.651 45.651 0 0 0 81.088 37.936 A 54.029 54.029 0 0 0 80.908 36.133 A 31.649 31.649 0 0 0 80.309 32.643 A 26.363 26.363 0 0 0 79.785 30.713 A 16.15 16.15 0 0 0 78.977 28.627 Q 78.463 27.543 77.821 26.677 A 9.879 9.879 0 0 0 77.734 26.563 A 4.512 4.512 0 0 0 76.638 25.519 A 3.78 3.78 0 0 0 74.512 24.903 Z M 289.746 40.821 L 289.746 37.989 Q 289.746 36.817 289.6 34.131 Q 289.453 31.446 288.965 28.76 A 20.444 20.444 0 0 0 288.27 25.998 A 16.177 16.177 0 0 0 287.451 23.975 Q 286.829 22.702 285.938 22.201 A 2.547 2.547 0 0 0 284.668 21.875 A 1.585 1.585 0 0 0 283.803 22.146 Q 283.309 22.463 282.842 23.151 A 6.075 6.075 0 0 0 282.813 23.194 A 11.235 11.235 0 0 0 282.081 24.478 Q 281.746 25.16 281.447 25.964 A 20.802 20.802 0 0 0 281.25 26.514 A 36.874 36.874 0 0 0 280.527 28.905 A 47.344 47.344 0 0 0 280.029 30.957 A 111.682 111.682 0 0 0 279.306 34.51 A 97.167 97.167 0 0 0 279.102 35.645 A 76.172 76.172 0 0 0 278.769 37.718 Q 278.626 38.701 278.528 39.581 A 45.505 45.505 0 0 0 278.516 39.698 A 403.233 403.233 0 0 1 278.424 40.537 Q 278.296 41.7 278.223 42.286 A 132.605 132.605 0 0 0 289.746 40.821 Z M 28.958 23.301 A 3.984 3.984 0 0 0 28.32 22.315 A 3.521 3.521 0 0 0 26.9 21.369 Q 25.912 20.997 24.512 20.997 Q 22.559 20.997 20.557 21.68 A 26.882 26.882 0 0 0 18.076 22.661 A 22.506 22.506 0 0 0 16.895 23.243 A 242.833 242.833 0 0 1 17.207 35.524 A 237.979 237.979 0 0 1 17.188 38.575 A 30.734 30.734 0 0 0 20.186 37.39 A 36.055 36.055 0 0 0 21.387 36.817 Q 23.535 35.743 25.342 34.18 Q 27.148 32.618 28.32 30.664 A 8.231 8.231 0 0 0 29.436 27.255 A 10.237 10.237 0 0 0 29.492 26.172 Q 29.492 24.458 28.958 23.301 Z" vector-effect="non-scaling-stroke"/></g></svg>