<svg width="213.282" height="79.981" viewBox="0 0 213.282 79.981" xmlns="http://www.w3.org/2000/svg"><g id="svgGroup" stroke-linecap="round" fill-rule="evenodd" font-size="9pt" stroke="#0f0e18" stroke-width="0.25mm" fill="#0f0e18" style="stroke:#0f0e18;stroke-width:0.25mm;fill:#0f0e18"><path d="M 53.516 36.719 L 53.418 39.258 Q 53.7 38.036 54.39 35.457 A 341.788 341.788 0 0 1 54.444 35.254 A 136.194 136.194 0 0 1 55.15 32.722 Q 55.646 31.003 56.25 29.053 A 348.256 348.256 0 0 1 58.242 22.837 A 381.723 381.723 0 0 1 58.545 21.924 A 77.556 77.556 0 0 1 59.965 18.005 A 61.873 61.873 0 0 1 61.133 15.235 A 43.847 43.847 0 0 1 62.244 12.944 Q 62.802 11.879 63.36 10.984 A 22.379 22.379 0 0 1 63.867 10.206 A 9.207 9.207 0 0 1 64.524 9.348 Q 65.542 8.18 66.504 8.106 A 2.565 2.565 0 0 1 66.655 8.101 Q 68.233 8.101 69.678 10.059 A 16.564 16.564 0 0 1 70.903 12.007 Q 71.456 13.026 71.962 14.239 A 32.054 32.054 0 0 1 72.412 15.381 Q 73.633 18.653 74.61 22.657 A 174.624 174.624 0 0 1 75.937 28.525 A 156.39 156.39 0 0 1 76.319 30.42 Q 77.051 34.18 77.442 37.207 A 475.244 475.244 0 0 0 77.625 38.611 Q 77.854 40.347 77.995 41.292 A 52.055 52.055 0 0 0 78.028 41.504 A 40.837 40.837 0 0 1 78.095 40.61 Q 78.223 39.1 78.516 36.573 A 136.073 136.073 0 0 1 78.979 33.016 Q 79.246 31.147 79.585 29.086 A 226.42 226.42 0 0 1 79.59 29.053 A 125.923 125.923 0 0 1 81.172 21.1 A 137.762 137.762 0 0 1 81.299 20.557 A 70.073 70.073 0 0 1 82.637 15.655 A 56.364 56.364 0 0 1 83.692 12.598 A 30.124 30.124 0 0 1 84.867 9.88 Q 85.518 8.566 86.24 7.493 A 16.137 16.137 0 0 1 86.817 6.69 A 7.709 7.709 0 0 1 87.895 5.53 Q 88.615 4.909 89.393 4.628 A 3.884 3.884 0 0 1 90.723 4.395 A 5.994 5.994 0 0 1 92.481 4.641 A 4.718 4.718 0 0 1 94.629 6.006 A 9.636 9.636 0 0 1 96.494 9.076 A 11.571 11.571 0 0 1 96.778 9.913 A 23.019 23.019 0 0 1 97.657 14.698 Q 97.847 17.128 97.852 18.767 A 28.762 28.762 0 0 1 97.852 18.848 A 85.312 85.312 0 0 1 97.071 30.42 Q 96.289 36.133 95.215 41.7 A 101.621 101.621 0 0 0 95.05 42.545 Q 94.789 43.911 94.38 46.194 A 711.188 711.188 0 0 0 94.336 46.436 A 234.794 234.794 0 0 1 93.689 49.891 A 320.209 320.209 0 0 1 92.92 53.711 A 133.917 133.917 0 0 1 91.483 59.882 A 152.151 152.151 0 0 1 90.918 62.012 A 78.776 78.776 0 0 1 89.523 66.599 A 61.799 61.799 0 0 1 88.33 69.825 A 33.189 33.189 0 0 1 87.083 72.574 Q 86.416 73.875 85.693 74.946 A 18.057 18.057 0 0 1 85.205 75.635 A 8.197 8.197 0 0 1 84.252 76.719 Q 82.962 77.93 81.543 77.93 A 4.177 4.177 0 0 1 79.451 77.346 Q 78.841 76.998 78.246 76.443 A 8.975 8.975 0 0 1 77.783 75.977 Q 75.977 74.024 74.463 71.045 A 46.587 46.587 0 0 1 72.838 67.463 A 59.263 59.263 0 0 1 71.68 64.356 A 114.045 114.045 0 0 1 69.968 58.927 A 99.766 99.766 0 0 1 69.483 57.178 Q 68.555 53.711 67.92 50.831 A 493.566 493.566 0 0 1 67.624 49.479 Q 67.341 48.176 67.149 47.249 A 107.159 107.159 0 0 1 66.992 46.485 A 211.702 211.702 0 0 0 66.77 47.214 Q 66.413 48.389 65.833 50.332 A 1427.075 1427.075 0 0 0 65.772 50.538 Q 64.997 53.136 63.839 56.33 A 150.216 150.216 0 0 1 63.672 56.788 A 132 132 0 0 1 61.226 62.967 A 145.313 145.313 0 0 1 60.84 63.868 A 75.259 75.259 0 0 1 58.83 68.155 A 62.424 62.424 0 0 1 57.569 70.508 Q 56.04 73.216 54.394 75.065 A 17.855 17.855 0 0 1 54.004 75.489 A 8.542 8.542 0 0 1 52.902 76.476 Q 51.598 77.442 50.293 77.442 Q 47.852 77.442 45.996 75.293 A 15.199 15.199 0 0 1 44.287 72.84 Q 43.604 71.633 43.032 70.192 A 25.852 25.852 0 0 1 42.871 69.776 A 46.492 46.492 0 0 1 41.567 65.738 A 59.488 59.488 0 0 1 40.723 62.256 Q 39.844 58.106 39.356 54.053 A 231.579 231.579 0 0 1 38.916 50.135 A 186.091 186.091 0 0 1 38.574 46.485 A 290.063 290.063 0 0 1 38.44 44.819 Q 38.257 42.456 38.184 40.918 A 1132.207 1132.207 0 0 1 37.647 31.739 Q 37.403 27.247 37.403 22.559 A 73.358 73.358 0 0 1 37.409 21.653 Q 37.421 20.639 37.46 19.301 A 253.361 253.361 0 0 1 37.5 18.018 A 29.982 29.982 0 0 1 38.233 12.354 A 17.245 17.245 0 0 1 39.163 9.439 A 13.96 13.96 0 0 1 40.186 7.471 A 4.669 4.669 0 0 1 43.409 5.258 A 6.022 6.022 0 0 1 44.043 5.176 A 4.699 4.699 0 0 1 44.257 5.171 Q 46.27 5.171 47.754 6.934 Q 49.069 8.496 50.039 10.923 A 22.874 22.874 0 0 1 50.391 11.866 Q 51.465 14.942 52.1 18.702 A 106.742 106.742 0 0 1 52.938 24.65 A 95.153 95.153 0 0 1 53.076 25.977 A 117.396 117.396 0 0 1 53.357 29.346 A 88.782 88.782 0 0 1 53.516 32.422 A 102.813 102.813 0 0 1 53.546 33.466 Q 53.595 35.608 53.516 36.719 Z M 175.489 40.821 L 175.489 43.555 A 709.779 709.779 0 0 1 175.44 51.905 Q 175.391 56.055 174.805 60.157 A 480.216 480.216 0 0 0 174.625 61.712 Q 174.533 62.512 174.433 63.407 A 860.701 860.701 0 0 0 174.365 64.014 A 39.052 39.052 0 0 1 173.633 68.36 A 17.818 17.818 0 0 1 172.387 72.013 A 16.5 16.5 0 0 1 172.217 72.364 A 7.166 7.166 0 0 1 171.227 73.867 A 5.64 5.64 0 0 1 169.727 75.098 Q 169.037 75.481 168.437 75.624 A 3.245 3.245 0 0 1 168.115 75.684 A 16.494 16.494 0 0 0 167.346 75.806 A 22.179 22.179 0 0 0 166.504 75.977 L 166.211 75.977 A 5.269 5.269 0 0 1 162.403 74.463 A 11.038 11.038 0 0 1 160.799 72.482 A 14.757 14.757 0 0 1 159.766 70.557 A 24.431 24.431 0 0 1 158.62 67.424 A 30.654 30.654 0 0 1 158.057 65.186 A 64.668 64.668 0 0 1 157.08 59.327 A 78.093 78.093 0 0 1 156.8 56.556 A 60.37 60.37 0 0 1 156.641 54.004 Q 156.566 52.135 156.549 50.838 A 55.004 55.004 0 0 1 156.543 50.098 Q 156.543 48.378 156.658 45.428 A 314.685 314.685 0 0 1 156.739 43.506 Q 156.934 39.161 157.569 33.887 A 173.848 173.848 0 0 1 158.979 24.434 A 191.231 191.231 0 0 1 159.229 23.047 A 69.208 69.208 0 0 1 160.583 17.11 A 54.608 54.608 0 0 1 161.914 12.94 Q 163.38 8.932 165.377 6.218 A 18.22 18.22 0 0 1 165.918 5.518 A 9.069 9.069 0 0 1 167.622 3.878 A 6.281 6.281 0 0 1 171.387 2.637 A 7.333 7.333 0 0 1 176.121 4.368 A 9.853 9.853 0 0 1 176.807 4.981 A 24.601 24.601 0 0 1 180.063 8.944 A 29.099 29.099 0 0 1 181.055 10.547 Q 182.91 13.77 184.18 17.286 A 803.767 803.767 0 0 0 184.79 18.97 Q 185.641 21.309 186.286 23.031 A 277.788 277.788 0 0 0 186.328 23.145 Q 187.989 27.735 189.551 32.276 Q 191.114 36.817 192.578 41.504 A 1.582 1.582 0 0 1 192.622 41.602 Q 192.722 41.844 192.932 42.468 A 51.594 51.594 0 0 1 192.969 42.579 A 65.847 65.847 0 0 0 193.286 43.506 A 90.183 90.183 0 0 0 193.653 44.532 A 39.711 39.711 0 0 0 194.062 45.695 Q 194.286 46.303 194.552 46.975 A 67.169 67.169 0 0 0 194.629 47.168 Q 194.629 45.899 194.58 45.362 A 12.651 12.651 0 0 1 194.544 44.849 A 9.308 9.308 0 0 1 194.532 44.385 L 194.532 43.262 L 194.532 41.114 A 425.727 425.727 0 0 1 194.385 34.668 A 419.064 419.064 0 0 1 194.336 28.321 Q 194.336 27.274 194.365 25.598 A 371.817 371.817 0 0 1 194.385 24.512 A 72.095 72.095 0 0 1 194.522 21.327 A 88.136 88.136 0 0 1 194.678 19.288 Q 194.922 16.504 195.41 13.672 A 27.61 27.61 0 0 1 196.099 10.656 A 22.062 22.062 0 0 1 196.826 8.545 A 13.649 13.649 0 0 1 197.803 6.576 A 10.107 10.107 0 0 1 199.17 4.786 A 4.623 4.623 0 0 1 202.509 3.322 A 5.661 5.661 0 0 1 202.637 3.321 A 5.553 5.553 0 0 1 206.698 5.034 A 7.227 7.227 0 0 1 206.836 5.176 A 13.219 13.219 0 0 1 208.626 7.583 A 17.913 17.913 0 0 1 209.766 9.913 A 31.12 31.12 0 0 1 210.985 13.575 A 39.308 39.308 0 0 1 211.621 16.358 A 93.406 93.406 0 0 1 212.693 23.314 A 88.141 88.141 0 0 1 212.696 23.34 A 88.237 88.237 0 0 1 213.042 27.031 A 69.354 69.354 0 0 1 213.184 29.688 Q 213.259 31.931 213.276 33.43 A 72.903 72.903 0 0 1 213.282 34.278 Q 213.282 35.923 213.167 38.627 A 250.61 250.61 0 0 1 213.086 40.381 A 119.989 119.989 0 0 1 212.805 44.532 A 158.417 158.417 0 0 1 212.354 49.073 A 118.559 118.559 0 0 1 210.84 58.741 A 58.573 58.573 0 0 1 209.556 63.995 A 46.273 46.273 0 0 1 208.301 67.676 A 27.284 27.284 0 0 1 206.803 70.909 Q 205.887 72.574 204.805 73.897 A 16.578 16.578 0 0 1 204.492 74.268 A 8.033 8.033 0 0 1 202.543 75.932 A 6.567 6.567 0 0 1 199.121 76.856 A 9.163 9.163 0 0 1 193.75 75.147 Q 191.309 73.438 189.356 70.948 A 33.664 33.664 0 0 1 185.938 65.625 A 83.675 83.675 0 0 1 184.672 63.078 Q 184.015 61.695 183.496 60.45 Q 181.446 55.469 179.395 50.635 A 236.795 236.795 0 0 1 175.489 40.821 Z M 150.05 63.294 A 27.74 27.74 0 0 0 150.098 61.719 A 97.099 97.099 0 0 0 149.219 48.682 A 207.072 207.072 0 0 0 147.071 35.84 A 8603.355 8603.355 0 0 0 146.93 35.083 Q 146.716 33.925 146.475 32.627 A 15097.172 15097.172 0 0 0 145.948 29.786 A 93.002 93.002 0 0 0 145.867 29.358 A 101.372 101.372 0 0 0 144.385 22.803 A 61.101 61.101 0 0 0 142.09 15.772 A 29.742 29.742 0 0 0 141.552 14.494 A 25.776 25.776 0 0 0 138.672 9.571 A 19.316 19.316 0 0 0 138.348 9.15 A 16.836 16.836 0 0 0 133.887 5.176 A 11.031 11.031 0 0 0 130.706 3.881 A 14.002 14.002 0 0 0 127.442 3.516 Q 123.633 3.516 120.508 5.469 A 20.167 20.167 0 0 0 119.127 6.414 A 22.098 22.098 0 0 0 114.942 10.547 A 35.047 35.047 0 0 0 113.468 12.581 A 40.681 40.681 0 0 0 110.596 17.627 A 76.985 76.985 0 0 0 107.276 25.635 A 106.688 106.688 0 0 0 106.595 27.646 A 93.511 93.511 0 0 0 104.883 33.497 A 200.396 200.396 0 0 0 104.311 35.782 Q 104.044 36.876 103.815 37.876 A 109.992 109.992 0 0 0 103.321 40.137 A 203.2 203.2 0 0 0 101.27 50.928 A 68.523 68.523 0 0 0 100.391 61.914 Q 100.391 63.16 100.473 64.872 A 112.211 112.211 0 0 0 100.537 66.065 A 21.774 21.774 0 0 0 101.367 70.899 A 14.041 14.041 0 0 0 101.829 72.235 A 11.451 11.451 0 0 0 103.369 74.952 Q 104.688 76.661 107.032 76.661 Q 110.059 76.661 112.158 74.414 A 16.87 16.87 0 0 0 113.292 73.066 A 18.905 18.905 0 0 0 115.576 69.092 Q 116.895 66.016 117.53 62.696 Q 118.164 59.375 118.36 57.129 A 376.101 376.101 0 0 0 132.227 55.079 A 668.763 668.763 0 0 1 132.275 56.217 Q 132.359 58.217 132.471 61.133 Q 132.617 64.942 133.399 68.604 A 20.561 20.561 0 0 0 134.129 71.206 A 15.973 15.973 0 0 0 135.987 74.903 Q 137.793 77.539 141.407 77.539 A 7.785 7.785 0 0 0 142.493 77.466 A 5.55 5.55 0 0 0 145.801 75.831 A 11.36 11.36 0 0 0 147.037 74.313 A 13.453 13.453 0 0 0 148.438 71.631 A 21.584 21.584 0 0 0 149.756 66.407 Q 149.97 64.698 150.05 63.294 Z M 32.959 11.524 A 5.829 5.829 0 0 0 34.375 7.618 A 9.451 9.451 0 0 0 34.344 6.84 A 6.714 6.714 0 0 0 31.934 2.051 A 8.535 8.535 0 0 0 29.34 0.546 A 9.505 9.505 0 0 0 26.074 0 Q 21.778 0 17.383 2.539 A 32.99 32.99 0 0 0 9.473 8.936 Q 5.957 12.793 3.711 17.432 A 24.515 24.515 0 0 0 2.176 21.407 A 17.756 17.756 0 0 0 1.465 26.27 A 11.85 11.85 0 0 0 1.95 29.611 A 14.422 14.422 0 0 0 3.467 33.008 A 69.558 69.558 0 0 0 7.91 39.502 A 133.089 133.089 0 0 1 9.393 41.467 A 113.029 113.029 0 0 1 12.354 45.655 A 15.85 15.85 0 0 1 12.568 45.982 Q 13.295 47.124 13.727 48.244 A 8.92 8.92 0 0 1 14.356 51.465 A 7.423 7.423 0 0 1 13.282 55.323 A 18.234 18.234 0 0 1 12.788 56.106 A 20.461 20.461 0 0 1 10.645 58.789 A 43.828 43.828 0 0 1 9.635 59.827 A 51.137 51.137 0 0 1 7.178 62.11 A 42.159 42.159 0 0 0 6.678 62.553 A 37.768 37.768 0 0 0 3.711 65.528 A 23.504 23.504 0 0 0 3.305 65.997 A 20.868 20.868 0 0 0 1.074 69.19 A 8.305 8.305 0 0 0 0 73.34 A 8.211 8.211 0 0 0 0.083 74.527 A 5.395 5.395 0 0 0 2.344 78.321 A 8.942 8.942 0 0 0 4.041 79.268 A 9.358 9.358 0 0 0 7.715 79.981 A 11.525 11.525 0 0 0 10.675 79.581 A 15.131 15.131 0 0 0 13.379 78.565 A 24.087 24.087 0 0 0 14.829 77.802 A 27.019 27.019 0 0 0 18.994 74.854 A 37.498 37.498 0 0 0 19.703 74.233 A 41.298 41.298 0 0 0 24.073 69.629 A 46.362 46.362 0 0 0 24.11 69.584 A 42.54 42.54 0 0 0 28.223 63.575 A 40.092 40.092 0 0 0 29.081 61.967 A 34.324 34.324 0 0 0 31.006 57.373 A 25.683 25.683 0 0 0 31.267 56.544 Q 31.63 55.318 31.821 54.199 A 13.982 13.982 0 0 0 32.032 51.856 Q 32.032 48.34 31.055 45.704 A 25.156 25.156 0 0 0 30.505 44.341 A 21.336 21.336 0 0 0 28.662 40.967 Q 27.246 38.868 25.537 37.159 A 79.276 79.276 0 0 1 24.297 35.891 A 66.341 66.341 0 0 1 22.412 33.838 A 24.047 24.047 0 0 1 21.57 32.826 A 20.388 20.388 0 0 1 20.02 30.567 A 6.954 6.954 0 0 1 19.515 29.519 A 7.406 7.406 0 0 1 19.043 26.856 A 10.514 10.514 0 0 1 19.093 25.819 A 8.525 8.525 0 0 1 20.02 22.657 A 13.293 13.293 0 0 1 22.559 19.288 Q 24.121 17.774 25.977 16.553 Q 27.832 15.332 29.59 14.258 Q 31.543 13.184 32.959 11.524 Z M 131.25 40.821 L 131.25 37.989 Q 131.25 36.817 131.104 34.131 Q 130.957 31.446 130.469 28.76 A 20.444 20.444 0 0 0 129.774 25.998 A 16.177 16.177 0 0 0 128.955 23.975 Q 128.333 22.702 127.442 22.201 A 2.547 2.547 0 0 0 126.172 21.875 A 1.585 1.585 0 0 0 125.307 22.146 Q 124.813 22.463 124.346 23.151 A 6.075 6.075 0 0 0 124.317 23.194 A 11.235 11.235 0 0 0 123.585 24.478 Q 123.25 25.16 122.951 25.964 A 20.802 20.802 0 0 0 122.754 26.514 A 36.874 36.874 0 0 0 122.031 28.905 A 47.344 47.344 0 0 0 121.533 30.957 A 111.682 111.682 0 0 0 120.81 34.51 A 97.167 97.167 0 0 0 120.606 35.645 A 76.172 76.172 0 0 0 120.273 37.718 Q 120.13 38.701 120.033 39.581 A 45.505 45.505 0 0 0 120.02 39.698 A 403.233 403.233 0 0 1 119.928 40.537 Q 119.8 41.7 119.727 42.286 A 132.605 132.605 0 0 0 131.25 40.821 Z" vector-effect="non-scaling-stroke"/></g></svg>