<svg width="233.399" height="77.149" viewBox="0 0 233.399 77.149" xmlns="http://www.w3.org/2000/svg"><g id="svgGroup" stroke-linecap="round" fill-rule="evenodd" font-size="9pt" stroke="#0f0e18" stroke-width="0.25mm" fill="#0f0e18" style="stroke:#0f0e18;stroke-width:0.25mm;fill:#0f0e18"><path d="M 97.162 46.94 A 89.075 89.075 0 0 0 97.461 39.746 L 97.461 37.745 A 17.627 17.627 0 0 0 97.461 37.686 A 19.189 19.189 0 0 0 97.363 35.84 Q 97.29 34.229 97.025 31.903 A 115.912 115.912 0 0 0 96.826 30.274 A 64.577 64.577 0 0 0 96.435 27.662 A 76.615 76.615 0 0 0 95.508 23.096 A 97.546 97.546 0 0 0 93.408 15.528 Q 92.188 11.719 90.527 8.643 A 22.011 22.011 0 0 0 88.874 6.017 A 15.972 15.972 0 0 0 86.768 3.662 A 8.61 8.61 0 0 0 85.696 2.829 A 6.237 6.237 0 0 0 82.227 1.758 A 7.615 7.615 0 0 0 81.407 1.801 A 5.247 5.247 0 0 0 77.686 3.809 A 7.521 7.521 0 0 0 76.074 8.594 A 16.426 16.426 0 0 0 76.416 11.914 A 41.229 41.229 0 0 0 77.246 15.235 Q 79.004 21.485 80.078 27.784 A 75.67 75.67 0 0 1 81.152 40.528 Q 81.152 42.774 80.908 45.899 A 29.856 29.856 0 0 1 80.892 46.094 A 27.102 27.102 0 0 1 79.785 51.856 A 15.232 15.232 0 0 1 79.52 52.637 A 12.946 12.946 0 0 1 77.1 56.739 A 5.797 5.797 0 0 1 74.484 58.464 A 7.215 7.215 0 0 1 72.266 58.789 A 8.435 8.435 0 0 1 71.299 58.736 A 5.927 5.927 0 0 1 67.334 56.69 A 13.316 13.316 0 0 1 65.957 54.762 A 15.989 15.989 0 0 1 64.551 51.612 A 26.175 26.175 0 0 1 63.33 45.411 Q 63.178 43.396 63.12 41.764 A 52.239 52.239 0 0 1 63.086 39.942 A 74.358 74.358 0 0 1 63.574 31.348 A 124.562 124.562 0 0 1 64.844 22.95 Q 65.332 20.313 65.869 17.627 Q 66.406 14.942 66.406 12.305 Q 66.406 10.547 66.016 8.448 A 15.624 15.624 0 0 0 64.697 4.444 A 11.339 11.339 0 0 0 64.363 3.808 A 9.595 9.595 0 0 0 62.305 1.27 A 5.019 5.019 0 0 0 60.498 0.261 A 6.022 6.022 0 0 0 58.691 0 A 6.961 6.961 0 0 0 56.037 0.504 A 7.346 7.346 0 0 0 53.613 2.149 A 16.161 16.161 0 0 0 51.595 4.633 A 21.389 21.389 0 0 0 49.951 7.618 A 33.003 33.003 0 0 0 48.7 10.807 A 42.26 42.26 0 0 0 47.51 15.137 A 125.39 125.39 0 0 0 47.283 16.184 A 114.404 114.404 0 0 0 45.996 23.34 A 113.557 113.557 0 0 0 45.603 26.289 A 92.387 92.387 0 0 0 45.166 30.86 A 478.195 478.195 0 0 0 45.06 32.427 Q 44.899 34.856 44.824 36.426 A 4.793 4.793 0 0 0 44.757 36.88 A 6.123 6.123 0 0 0 44.727 37.5 L 44.727 38.77 A 47.373 47.373 0 0 0 44.733 39.576 A 50.691 50.691 0 0 0 46.484 51.807 A 43.576 43.576 0 0 0 46.653 52.422 A 38.668 38.668 0 0 0 51.856 63.721 Q 55.469 69.043 60.889 72.461 A 21.389 21.389 0 0 0 66.984 75.077 A 26.48 26.48 0 0 0 73.633 75.879 A 31.58 31.58 0 0 0 73.778 75.879 Q 76.032 75.869 78.023 75.536 A 19.198 19.198 0 0 0 82.324 74.317 A 21.915 21.915 0 0 0 83.011 74.014 A 19.032 19.032 0 0 0 88.672 70.069 A 23.087 23.087 0 0 0 93.018 63.819 A 38.616 38.616 0 0 0 95.703 56.25 A 56.682 56.682 0 0 0 97.07 47.998 A 98.066 98.066 0 0 0 97.162 46.94 Z M 174.609 58.692 L 175.195 58.692 A 13.923 13.923 0 0 1 178.272 59.034 A 7.912 7.912 0 0 1 181.006 60.205 Q 182.227 61.036 182.959 62.256 Q 183.691 63.477 183.691 65.235 A 5.829 5.829 0 0 1 182.275 69.141 A 10.812 10.812 0 0 1 180.223 70.983 A 14.071 14.071 0 0 1 178.564 71.973 A 25.168 25.168 0 0 1 175.486 73.285 A 30.727 30.727 0 0 1 173.438 73.926 A 50.278 50.278 0 0 1 167.773 75.147 A 75.078 75.078 0 0 1 164.348 75.601 A 62.843 62.843 0 0 1 162.402 75.782 Q 159.863 75.977 158.301 75.977 A 35.973 35.973 0 0 1 157.346 75.963 Q 156.488 75.94 155.42 75.879 A 13.107 13.107 0 0 1 152.772 75.463 A 11.869 11.869 0 0 1 152.197 75.293 Q 150.684 74.805 149.609 73.828 Q 148.535 72.852 148.535 71.192 A 8.692 8.692 0 0 1 148.769 69.137 A 7.206 7.206 0 0 1 149.365 67.53 A 10.426 10.426 0 0 1 151.563 64.649 Q 152.93 63.379 154.639 62.598 Q 156.348 61.817 158.106 61.426 A 635.622 635.622 0 0 0 159.375 50.733 Q 159.961 45.411 160.156 39.942 A 11608.601 11608.601 0 0 1 160.547 28.955 A 33907.926 33907.926 0 0 0 160.938 18.067 A 24.627 24.627 0 0 1 160.278 18.152 A 19.353 19.353 0 0 1 159.668 18.213 A 14.941 14.941 0 0 1 159.106 18.25 A 11.31 11.31 0 0 1 158.594 18.262 Q 157.227 18.262 155.664 17.969 Q 154.102 17.676 152.734 16.944 A 8.306 8.306 0 0 1 151.062 15.775 A 7.363 7.363 0 0 1 150.439 15.137 A 3.761 3.761 0 0 1 149.579 13.255 A 5.188 5.188 0 0 1 149.512 12.403 A 6.498 6.498 0 0 1 151.681 7.454 A 8.754 8.754 0 0 1 152.295 6.934 A 19.152 19.152 0 0 1 156.52 4.488 A 23.888 23.888 0 0 1 158.936 3.614 A 43.202 43.202 0 0 1 166.797 2.002 A 100.417 100.417 0 0 1 169.147 1.771 Q 171.403 1.577 173.016 1.564 A 28.331 28.331 0 0 1 173.242 1.563 A 25.471 25.471 0 0 1 174.183 1.582 Q 175.311 1.624 176.856 1.758 Q 179.102 1.953 181.299 2.637 A 14.322 14.322 0 0 1 183.578 3.557 A 11.537 11.537 0 0 1 185.107 4.493 A 3.708 3.708 0 0 1 186.687 7.156 A 4.789 4.789 0 0 1 186.719 7.715 A 7.1 7.1 0 0 1 186.441 9.73 A 6.179 6.179 0 0 1 185.889 11.036 Q 185.059 12.5 183.691 13.526 A 13.735 13.735 0 0 1 180.664 15.235 A 17.616 17.616 0 0 1 178.627 15.937 A 14.694 14.694 0 0 1 177.441 16.211 A 496.415 496.415 0 0 1 176.901 32.325 A 445.59 445.59 0 0 1 176.611 37.5 A 331.826 331.826 0 0 1 175.247 53.266 A 368.721 368.721 0 0 1 174.609 58.692 Z M 48.938 11.002 A 6.042 6.042 0 0 0 50.195 7.325 A 9.06 9.06 0 0 0 50.179 6.781 Q 50.056 4.727 48.975 3.516 A 7.153 7.153 0 0 0 48.06 2.657 A 7.863 7.863 0 0 0 45.898 1.465 A 13.353 13.353 0 0 0 45.431 1.303 A 14.41 14.41 0 0 0 41.943 0.635 A 64.066 64.066 0 0 0 40.403 0.546 A 53.076 53.076 0 0 0 37.988 0.489 A 32.099 32.099 0 0 0 37.252 0.498 Q 35.409 0.54 32.471 0.782 A 103.92 103.92 0 0 0 28.735 1.16 A 136.73 136.73 0 0 0 24.658 1.709 A 83.898 83.898 0 0 0 16.064 3.467 A 55.703 55.703 0 0 0 12.915 4.378 A 45.251 45.251 0 0 0 8.154 6.202 A 24.626 24.626 0 0 0 5.092 7.841 A 17.914 17.914 0 0 0 2.295 10.01 A 9.115 9.115 0 0 0 1.917 10.393 A 6.772 6.772 0 0 0 0 15.137 A 4.704 4.704 0 0 0 0.005 15.361 A 3.64 3.64 0 0 0 1.27 18.018 A 8.518 8.518 0 0 0 2.211 18.74 A 9.766 9.766 0 0 0 4.297 19.776 A 17.18 17.18 0 0 0 7.959 20.655 A 48.15 48.15 0 0 0 8.131 20.676 Q 9.332 20.826 10.231 20.875 A 14.87 14.87 0 0 0 11.035 20.899 A 41.866 41.866 0 0 0 13.916 20.801 A 38.317 38.317 0 0 0 16.699 20.508 A 957.363 957.363 0 0 1 16.65 30.274 A 957.363 957.363 0 0 0 16.602 40.039 Q 16.602 45.996 16.699 51.905 Q 16.797 57.813 16.992 63.672 A 23.762 23.762 0 0 0 16.993 63.792 Q 17.002 65.602 17.285 67.823 A 17.405 17.405 0 0 0 18.408 72.168 A 11.056 11.056 0 0 0 18.528 72.454 A 9.531 9.531 0 0 0 20.752 75.635 A 5.072 5.072 0 0 0 23.078 76.86 A 7.377 7.377 0 0 0 24.805 77.051 A 6.768 6.768 0 0 0 25.459 77.02 A 5.161 5.161 0 0 0 28.418 75.782 A 8.862 8.862 0 0 0 30.713 72.657 A 15.893 15.893 0 0 0 31.885 68.702 A 28.105 28.105 0 0 0 32.13 66.808 A 21.103 21.103 0 0 0 32.227 64.844 A 156.421 156.421 0 0 0 32.031 57.032 A 158.391 158.391 0 0 1 31.836 49.121 A 255.22 255.22 0 0 1 32.275 34.131 A 335.937 335.937 0 0 1 33.496 19.141 A 25.534 25.534 0 0 0 34.887 18.803 Q 35.64 18.6 36.509 18.327 A 63.62 63.62 0 0 0 38.184 17.774 Q 41.016 16.797 43.701 15.284 A 22.159 22.159 0 0 0 45.15 14.394 A 18.574 18.574 0 0 0 48.291 11.768 A 8.235 8.235 0 0 0 48.938 11.002 Z M 121.68 54.395 L 121.68 58.203 Q 126.074 56.836 131.25 55.616 A 46.222 46.222 0 0 1 137.51 54.568 A 38.312 38.312 0 0 1 141.113 54.395 A 29.657 29.657 0 0 1 144.482 54.59 A 10.589 10.589 0 0 1 146.182 54.92 A 8.288 8.288 0 0 1 147.51 55.42 A 5.379 5.379 0 0 1 149.658 57.276 A 4.411 4.411 0 0 1 150.253 58.599 Q 150.415 59.187 150.465 59.886 A 9.158 9.158 0 0 1 150.488 60.547 A 6.059 6.059 0 0 1 149.542 63.766 A 8.703 8.703 0 0 1 148.486 65.137 A 17.851 17.851 0 0 1 146.039 67.302 A 24.64 24.64 0 0 1 143.311 69.043 A 40.175 40.175 0 0 1 138.83 71.161 A 48.776 48.776 0 0 1 136.231 72.12 Q 132.324 73.438 128.516 74.366 A 83.919 83.919 0 0 1 124.037 75.333 A 67.863 67.863 0 0 1 121.338 75.782 A 70.001 70.001 0 0 1 119.742 75.995 Q 118.011 76.206 116.746 76.255 A 18.803 18.803 0 0 1 116.016 76.27 A 22.844 22.844 0 0 1 113.601 76.136 A 28.075 28.075 0 0 1 112.061 75.928 A 8.107 8.107 0 0 1 110.308 75.448 A 6.191 6.191 0 0 1 108.594 74.414 A 2.112 2.112 0 0 1 108.153 73.945 Q 107.784 73.428 107.466 72.531 A 12.698 12.698 0 0 1 107.227 71.778 A 41.992 41.992 0 0 1 106.794 70.13 Q 106.439 68.665 106.104 66.895 A 83.747 83.747 0 0 1 105.489 63.183 A 102.231 102.231 0 0 1 105.176 60.791 A 157.33 157.33 0 0 1 104.541 54.395 A 293.448 293.448 0 0 1 104.321 51.392 A 227.005 227.005 0 0 1 104.15 48.633 A 144.385 144.385 0 0 1 104.086 47.388 Q 104.023 46.042 104.008 45.083 A 35.889 35.889 0 0 1 104.004 44.532 Q 104.004 42.09 104.15 38.623 A 212.658 212.658 0 0 1 104.334 35.035 A 259.81 259.81 0 0 1 104.59 31.202 Q 104.883 27.246 105.371 23.145 A 155.422 155.422 0 0 1 106.112 17.713 A 132.534 132.534 0 0 1 106.494 15.381 Q 107.129 11.719 108.057 8.789 Q 108.984 5.86 110.059 4.2 Q 111.914 1.563 114.746 1.563 A 4.607 4.607 0 0 1 118.066 2.881 A 8.613 8.613 0 0 1 119.533 4.778 A 11.356 11.356 0 0 1 120.264 6.299 Q 121.094 8.399 121.533 10.987 Q 121.973 13.575 122.168 16.114 A 69.709 69.709 0 0 1 122.314 18.555 A 54.027 54.027 0 0 1 122.363 20.801 L 122.363 24.219 A 330.099 330.099 0 0 1 122.022 39.307 A 330.099 330.099 0 0 0 121.68 54.395 Z M 233.398 21.68 Q 233.398 26.953 231.104 32.032 Q 228.809 37.11 225 41.162 Q 221.191 45.215 216.309 47.803 A 24.714 24.714 0 0 1 208.5 50.446 A 23.147 23.147 0 0 1 206.25 50.684 Q 206.157 52.354 206.109 54.862 A 213.937 213.937 0 0 0 206.104 55.127 A 66.794 66.794 0 0 1 205.893 59.293 A 76.641 76.641 0 0 1 205.762 60.743 A 72.469 72.469 0 0 1 204.932 66.602 A 26.427 26.427 0 0 1 204.173 69.712 A 21.027 21.027 0 0 1 203.369 71.875 A 12.574 12.574 0 0 1 202.197 73.999 A 9.812 9.812 0 0 1 200.732 75.684 A 5.589 5.589 0 0 1 197.139 77.14 A 7.236 7.236 0 0 1 196.777 77.149 Q 194.043 77.149 192.432 75.342 Q 190.82 73.536 189.99 70.996 Q 189.16 68.457 188.867 65.674 A 122.398 122.398 0 0 1 188.675 63.704 Q 188.538 62.159 188.477 60.938 A 109.27 109.27 0 0 1 188.232 55.371 A 311.834 311.834 0 0 1 188.184 49.805 L 188.184 45.069 A 588.525 588.525 0 0 1 188.193 41.848 Q 188.202 40.206 188.22 38.389 A 989.27 989.27 0 0 1 188.232 37.159 A 977.325 977.325 0 0 1 188.333 30.274 A 1107.864 1107.864 0 0 1 188.379 27.881 A 376.625 376.625 0 0 1 188.501 23.218 A 300.109 300.109 0 0 1 188.672 18.897 Q 188.806 16.043 188.964 13.767 A 138.834 138.834 0 0 1 189.111 11.817 Q 189.356 8.887 189.746 8.399 Q 189.838 8.307 190.271 8.002 A 27.425 27.425 0 0 1 190.332 7.959 A 14.365 14.365 0 0 1 190.981 7.532 A 17.428 17.428 0 0 1 191.406 7.276 Q 191.992 6.934 192.481 6.641 A 30.617 30.617 0 0 1 192.7 6.511 Q 192.97 6.352 193.117 6.274 A 2.814 2.814 0 0 1 193.164 6.25 A 57.32 57.32 0 0 1 200.397 2.826 A 66.523 66.523 0 0 1 203.027 1.856 A 33.274 33.274 0 0 1 211.277 0.096 A 30.248 30.248 0 0 1 213.672 0 A 19.302 19.302 0 0 1 218.901 0.689 A 16.906 16.906 0 0 1 221.826 1.807 A 19.761 19.761 0 0 1 228.076 6.592 Q 230.664 9.571 232.031 13.526 A 24.786 24.786 0 0 1 233.398 21.68 Z M 216.504 23.926 A 6.943 6.943 0 0 0 216.261 22.055 A 5.769 5.769 0 0 0 215.576 20.508 Q 214.648 19.043 212.5 19.043 A 9.909 9.909 0 0 0 209.195 19.624 A 11.432 11.432 0 0 0 208.789 19.776 A 46.073 46.073 0 0 0 206.584 20.71 A 37.727 37.727 0 0 0 205.371 21.289 A 677.729 677.729 0 0 1 205.878 27.526 A 618.801 618.801 0 0 1 205.908 27.93 A 48.189 48.189 0 0 1 206.044 31.571 A 52.576 52.576 0 0 1 205.957 34.571 A 81.583 81.583 0 0 0 207.593 33.728 A 109.009 109.009 0 0 0 209.375 32.764 Q 211.231 31.739 212.793 30.469 A 12.977 12.977 0 0 0 215.43 27.588 A 6.425 6.425 0 0 0 216.503 24.054 A 7.752 7.752 0 0 0 216.504 23.926 Z" vector-effect="non-scaling-stroke"/></g></svg>