<svg width="233.399" height="78.223" viewBox="0 0 233.399 78.223" xmlns="http://www.w3.org/2000/svg"><g id="svgGroup" stroke-linecap="round" fill-rule="evenodd" font-size="9pt" stroke="#0f0e18" stroke-width="0.25mm" fill="#0f0e18" style="stroke:#0f0e18;stroke-width:0.25mm;fill:#0f0e18"><path d="M 182.162 62.84 A 7.222 7.222 0 0 0 182.91 59.668 A 6.986 6.986 0 0 0 182.881 59.027 A 7.619 7.619 0 0 0 182.373 56.934 A 9.424 9.424 0 0 0 182.178 56.474 A 8.12 8.12 0 0 0 180.957 54.541 Q 180.078 53.516 178.809 52.881 A 6.029 6.029 0 0 0 176.074 52.246 Q 174.805 52.246 172.168 52.881 A 79.421 79.421 0 0 0 170.837 53.214 A 90.853 90.853 0 0 0 166.699 54.395 A 235.923 235.923 0 0 0 165.298 54.834 A 208.959 208.959 0 0 0 161.279 56.152 A 2006.529 2006.529 0 0 1 161.088 56.217 Q 159.281 56.831 158.194 57.196 A 300.48 300.48 0 0 1 157.52 57.422 L 157.129 54.688 A 19.312 19.312 0 0 1 156.934 51.953 A 8.04 8.04 0 0 1 156.94 51.622 A 8.946 8.946 0 0 1 157.129 50.147 A 53.053 53.053 0 0 1 157.324 49.255 A 41.544 41.544 0 0 1 157.52 48.438 A 569.09 569.09 0 0 0 164.355 46.045 Q 167.773 44.824 170.898 43.164 Q 172.168 42.48 173.486 41.748 A 12.669 12.669 0 0 0 173.67 41.644 A 11.336 11.336 0 0 0 175.83 40.039 Q 176.855 39.063 177.49 37.793 A 5.782 5.782 0 0 0 177.968 36.42 A 7.373 7.373 0 0 0 178.125 34.863 Q 178.125 29.523 173.893 28.354 A 10.173 10.173 0 0 0 171.191 28.027 A 18.829 18.829 0 0 0 167.789 28.348 A 24.34 24.34 0 0 0 163.965 29.395 A 65.532 65.532 0 0 0 160.782 30.628 A 50.632 50.632 0 0 0 157.129 32.324 Q 157.324 29.98 157.764 27.686 A 271.444 271.444 0 0 0 158.594 23.145 A 74.073 74.073 0 0 1 158.823 23.047 Q 159.846 22.612 161.771 21.826 A 726.777 726.777 0 0 1 163.33 21.191 A 134.734 134.734 0 0 0 165.464 20.304 A 158.03 158.03 0 0 0 170.361 18.115 A 112.738 112.738 0 0 0 173.032 16.827 A 94.275 94.275 0 0 0 177.148 14.648 Q 180.273 12.891 181.25 11.621 Q 181.64 11.008 181.919 10.459 A 8.818 8.818 0 0 0 182.275 9.668 Q 182.484 9.132 182.565 8.452 A 7.867 7.867 0 0 0 182.617 7.52 Q 182.617 6.055 182.08 4.736 Q 181.543 3.418 180.615 2.344 Q 179.688 1.27 178.369 0.635 Q 177.051 0 175.586 0 A 12.022 12.022 0 0 0 175.082 0.011 Q 174.24 0.047 173.022 0.192 A 57.074 57.074 0 0 0 171.875 0.342 A 120.496 120.496 0 0 0 169.299 0.732 A 163.816 163.816 0 0 0 166.455 1.221 A 96.339 96.339 0 0 0 164.951 1.505 A 110.569 110.569 0 0 0 160.254 2.539 Q 157.031 3.32 154.248 4.199 Q 152.682 4.694 151.349 5.219 A 30.505 30.505 0 0 0 149.414 6.055 A 17.637 17.637 0 0 0 148.711 6.408 Q 147.239 7.192 146.68 7.91 A 20.876 20.876 0 0 0 144.638 11.325 A 27.745 27.745 0 0 0 143.115 15.283 Q 141.797 19.629 141.113 24.365 Q 140.43 29.102 140.186 33.789 A 223.199 223.199 0 0 0 140.122 35.086 Q 140.033 37 139.988 38.723 A 129.128 129.128 0 0 0 139.941 42.09 A 41.823 41.823 0 0 0 139.941 42.164 Q 139.943 42.892 139.969 44.214 A 336.34 336.34 0 0 0 139.99 45.215 A 118.075 118.075 0 0 0 140.006 45.832 Q 140.032 46.776 140.076 47.833 A 207.369 207.369 0 0 0 140.186 50.147 A 503.56 503.56 0 0 0 140.344 53.003 A 585.635 585.635 0 0 0 140.527 56.006 A 248.325 248.325 0 0 0 140.735 58.997 A 208.743 208.743 0 0 0 140.967 61.816 A 90.514 90.514 0 0 0 141.037 62.572 Q 141.146 63.685 141.272 64.676 A 50.62 50.62 0 0 0 141.553 66.602 A 29.498 29.498 0 0 0 141.603 66.893 Q 141.923 68.702 142.285 69.336 A 6.459 6.459 0 0 0 142.734 70.001 Q 143.064 70.433 143.502 70.878 A 14.012 14.012 0 0 0 144.482 71.777 A 17.648 17.648 0 0 0 144.697 71.954 A 19.082 19.082 0 0 0 147.852 74.023 A 28.662 28.662 0 0 0 148.315 74.262 A 25.803 25.803 0 0 0 151.563 75.635 A 15.479 15.479 0 0 0 152.37 75.887 Q 153.022 76.071 153.606 76.167 A 7.337 7.337 0 0 0 154.785 76.27 A 7.756 7.756 0 0 0 155.801 76.194 Q 157.685 75.943 160.84 74.854 A 86.433 86.433 0 0 0 163.432 73.911 A 101.517 101.517 0 0 0 169.336 71.436 A 79.543 79.543 0 0 0 172.522 69.9 A 65.756 65.756 0 0 0 177.344 67.188 Q 179.948 65.569 181.182 64.254 A 5.594 5.594 0 0 0 181.934 63.281 A 8.665 8.665 0 0 0 182.162 62.84 Z M 48.817 13.952 A 33.392 33.392 0 0 0 49.023 10.352 A 15.684 15.684 0 0 0 49.012 9.749 A 17.698 17.698 0 0 0 48.779 7.52 A 11.843 11.843 0 0 0 48.747 7.337 A 10.619 10.619 0 0 0 47.949 4.785 A 6.01 6.01 0 0 0 47.945 4.775 A 5.151 5.151 0 0 0 46.289 2.734 A 3.618 3.618 0 0 0 46.185 2.662 Q 45.136 1.953 43.555 1.953 Q 41.958 1.953 40.41 3.187 A 9.915 9.915 0 0 0 39.16 4.395 Q 37.012 6.836 35.01 10.693 A 72.455 72.455 0 0 0 33.295 14.237 A 91.329 91.329 0 0 0 31.201 19.287 A 271.88 271.88 0 0 0 30.754 20.467 A 246.022 246.022 0 0 0 27.881 28.516 A 288.713 288.713 0 0 0 26.465 32.825 A 217.537 217.537 0 0 0 25.244 36.768 A 10650.086 10650.086 0 0 1 24.747 38.431 Q 24.233 40.151 23.862 41.391 A 2460.027 2460.027 0 0 1 23.535 42.48 A 21.217 21.217 0 0 1 23.492 42.376 Q 22.842 40.793 22.192 38.496 A 71.335 71.335 0 0 1 21.582 36.182 A 809.088 809.088 0 0 1 20.581 32.08 A 991.673 991.673 0 0 1 19.531 27.686 A 423.331 423.331 0 0 0 17.236 18.457 A 90.549 90.549 0 0 0 15.955 13.989 A 70.006 70.006 0 0 0 14.551 9.961 Q 13.715 7.789 12.769 6.077 A 19.519 19.519 0 0 0 11.279 3.76 Q 10.475 2.694 9.602 2.103 A 4 4 0 0 0 7.324 1.367 A 10.173 10.173 0 0 0 6.434 1.405 Q 5.621 1.476 4.943 1.684 A 4.747 4.747 0 0 0 3.369 2.49 Q 1.953 3.613 1.172 5.371 A 11.234 11.234 0 0 0 0.741 6.503 A 12.77 12.77 0 0 0 0.195 9.229 A 48.096 48.096 0 0 0 0.129 10.011 A 42.848 42.848 0 0 0 0 13.281 Q 0 21.094 1.758 28.857 A 558.271 558.271 0 0 0 5.469 44.238 Q 5.762 45.41 6.302 47.351 A 308.153 308.153 0 0 0 6.689 48.73 A 87.775 87.775 0 0 0 7.617 51.782 A 114.193 114.193 0 0 0 8.74 55.078 A 117.668 117.668 0 0 0 9.05 55.935 A 129.72 129.72 0 0 0 11.475 62.061 A 61.691 61.691 0 0 0 12.687 64.741 A 49.621 49.621 0 0 0 14.697 68.506 Q 16.406 71.387 18.311 73.242 A 9.46 9.46 0 0 0 18.558 73.475 Q 20.348 75.098 22.266 75.098 A 6.482 6.482 0 0 0 24.834 74.572 A 7.917 7.917 0 0 0 26.807 73.34 A 16.808 16.808 0 0 0 28.821 71.326 A 22.236 22.236 0 0 0 30.664 68.799 A 37.254 37.254 0 0 0 32.146 66.223 A 46.382 46.382 0 0 0 33.887 62.5 A 124.219 124.219 0 0 0 36.572 55.469 A 157.807 157.807 0 0 0 37.447 52.88 A 132.294 132.294 0 0 0 38.721 48.779 A 128.02 128.02 0 0 1 39.286 46.896 Q 39.562 46.004 39.823 45.213 A 62.364 62.364 0 0 1 40.43 43.457 Q 41.602 40.039 43.115 35.791 A 161.692 161.692 0 0 0 45.947 27.051 Q 47.266 22.559 48.145 18.213 A 55.207 55.207 0 0 0 48.254 17.656 Q 48.625 15.72 48.817 13.952 Z M 72.168 59.668 L 72.754 59.668 A 13.923 13.923 0 0 1 75.83 60.01 A 7.912 7.912 0 0 1 78.564 61.182 Q 79.785 62.012 80.518 63.232 Q 81.25 64.453 81.25 66.211 A 5.829 5.829 0 0 1 79.834 70.117 A 10.812 10.812 0 0 1 77.782 71.959 A 14.071 14.071 0 0 1 76.123 72.949 A 25.168 25.168 0 0 1 73.045 74.262 A 30.727 30.727 0 0 1 70.996 74.902 A 50.278 50.278 0 0 1 65.332 76.123 A 75.078 75.078 0 0 1 61.906 76.577 A 62.843 62.843 0 0 1 59.961 76.758 Q 57.422 76.953 55.859 76.953 A 35.973 35.973 0 0 1 54.905 76.939 Q 54.047 76.917 52.979 76.855 A 13.107 13.107 0 0 1 50.33 76.439 A 11.869 11.869 0 0 1 49.756 76.27 Q 48.242 75.781 47.168 74.805 Q 46.094 73.828 46.094 72.168 A 8.692 8.692 0 0 1 46.328 70.113 A 7.206 7.206 0 0 1 46.924 68.506 A 10.426 10.426 0 0 1 49.121 65.625 Q 50.488 64.355 52.197 63.574 Q 53.906 62.793 55.664 62.402 A 635.622 635.622 0 0 0 56.934 51.709 Q 57.52 46.387 57.715 40.918 A 11608.601 11608.601 0 0 1 58.105 29.932 A 33907.926 33907.926 0 0 0 58.496 19.043 A 24.627 24.627 0 0 1 57.837 19.128 A 19.353 19.353 0 0 1 57.227 19.189 A 14.941 14.941 0 0 1 56.665 19.226 A 11.31 11.31 0 0 1 56.152 19.238 Q 54.785 19.238 53.223 18.945 Q 51.66 18.652 50.293 17.92 A 8.306 8.306 0 0 1 48.621 16.751 A 7.363 7.363 0 0 1 47.998 16.113 A 3.761 3.761 0 0 1 47.138 14.231 A 5.188 5.188 0 0 1 47.07 13.379 A 6.498 6.498 0 0 1 49.239 8.43 A 8.754 8.754 0 0 1 49.854 7.91 A 19.152 19.152 0 0 1 54.078 5.464 A 23.888 23.888 0 0 1 56.494 4.59 A 43.202 43.202 0 0 1 64.355 2.979 A 100.417 100.417 0 0 1 66.705 2.747 Q 68.962 2.553 70.575 2.54 A 28.331 28.331 0 0 1 70.801 2.539 A 25.471 25.471 0 0 1 71.741 2.558 Q 72.87 2.6 74.414 2.734 Q 76.66 2.93 78.857 3.613 A 14.322 14.322 0 0 1 81.137 4.533 A 11.537 11.537 0 0 1 82.666 5.469 A 3.708 3.708 0 0 1 84.245 8.132 A 4.789 4.789 0 0 1 84.277 8.691 A 7.1 7.1 0 0 1 84 10.706 A 6.179 6.179 0 0 1 83.447 12.012 Q 82.617 13.477 81.25 14.502 A 13.735 13.735 0 0 1 78.223 16.211 A 17.616 17.616 0 0 1 76.186 16.913 A 14.694 14.694 0 0 1 75 17.188 A 496.415 496.415 0 0 1 74.46 33.301 A 445.59 445.59 0 0 1 74.17 38.477 A 331.826 331.826 0 0 1 72.806 54.242 A 368.721 368.721 0 0 1 72.168 59.668 Z M 92.676 75.195 L 92.48 75.195 A 3.255 3.255 0 0 1 89.966 74.048 A 4.789 4.789 0 0 1 89.6 73.584 Q 88.626 72.187 87.91 70.167 A 21.528 21.528 0 0 1 87.695 69.531 A 27.626 27.626 0 0 1 86.94 66.599 A 35.934 35.934 0 0 1 86.523 64.063 A 98.229 98.229 0 0 1 85.95 58.335 A 90.362 90.362 0 0 1 85.937 58.154 A 92.499 92.499 0 0 1 85.797 55.582 Q 85.749 54.371 85.743 53.286 A 55.319 55.319 0 0 1 85.742 52.979 L 85.742 49.512 A 220.919 220.919 0 0 1 85.84 42.92 A 228.213 228.213 0 0 1 86.133 36.328 A 22.04 22.04 0 0 1 86.142 35.727 Q 86.161 35.041 86.219 34.082 A 99.123 99.123 0 0 1 86.279 33.154 Q 86.426 31.055 86.621 28.418 A 195.632 195.632 0 0 1 86.969 24.326 A 223.959 223.959 0 0 1 87.109 22.9 A 172.033 172.033 0 0 1 87.415 20.117 A 139.153 139.153 0 0 1 87.744 17.529 A 135.669 135.669 0 0 1 88.043 15.463 Q 88.235 14.206 88.428 13.135 A 16.407 16.407 0 0 1 88.608 12.259 Q 88.892 11.06 89.258 10.547 A 9.928 9.928 0 0 1 91.055 8.343 Q 91.912 7.544 93.016 6.833 A 16.799 16.799 0 0 1 93.164 6.738 Q 95.801 5.078 98.877 4.004 A 38.323 38.323 0 0 1 105.127 2.393 Q 107.557 1.981 109.5 1.885 A 23.126 23.126 0 0 1 110.645 1.855 A 29.226 29.226 0 0 1 116.135 2.347 A 21.512 21.512 0 0 1 121.826 4.248 Q 126.563 6.641 129.736 10.693 Q 132.91 14.746 134.424 20.02 A 39.802 39.802 0 0 1 135.938 31.055 Q 135.938 39.648 132.422 47.607 Q 128.906 55.566 122.998 61.719 A 45.614 45.614 0 0 1 109.229 71.533 A 38.739 38.739 0 0 1 92.676 75.195 Z M 203.125 77.478 A 20.051 20.051 0 0 0 208.691 78.223 Q 214.941 78.223 219.58 75.195 A 23.115 23.115 0 0 0 222.585 72.86 A 25.772 25.772 0 0 0 227.295 66.992 A 36.016 36.016 0 0 0 229.688 62.155 A 44.704 44.704 0 0 0 231.885 55.029 A 60.051 60.051 0 0 0 232.582 51.365 A 68.497 68.497 0 0 0 233.398 40.625 A 84.203 84.203 0 0 0 232.275 26.953 A 53.733 53.733 0 0 0 231.381 22.609 A 43.971 43.971 0 0 0 228.564 14.6 A 28.834 28.834 0 0 0 227.623 12.764 A 24.028 24.028 0 0 0 221.631 5.615 A 15.306 15.306 0 0 0 215.991 2.789 A 19.794 19.794 0 0 0 210.84 2.148 A 22.85 22.85 0 0 0 208.711 2.246 A 17.862 17.862 0 0 0 199.414 5.762 A 27.281 27.281 0 0 0 196.837 7.973 A 29.941 29.941 0 0 0 191.504 15.039 A 41.984 41.984 0 0 0 189.546 19.095 A 48.954 48.954 0 0 0 186.865 27.734 A 65.758 65.758 0 0 0 185.352 41.602 A 74.151 74.151 0 0 0 185.386 43.874 A 65.617 65.617 0 0 0 186.768 55.566 A 46.84 46.84 0 0 0 188.097 60.509 A 36.648 36.648 0 0 0 191.064 67.236 A 27.669 27.669 0 0 0 192.002 68.758 A 23.177 23.177 0 0 0 198.34 75.244 A 16.705 16.705 0 0 0 203.125 77.478 Z M 119.531 33.887 A 12.847 12.847 0 0 0 119.073 30.54 A 15.245 15.245 0 0 0 118.75 29.492 A 14.643 14.643 0 0 0 116.553 25.391 A 11.083 11.083 0 0 0 113.135 22.412 A 8.857 8.857 0 0 0 108.995 21.293 A 10.441 10.441 0 0 0 108.691 21.289 A 9.435 9.435 0 0 0 105.859 21.74 A 11.924 11.924 0 0 0 104.492 22.266 A 0.915 0.915 0 0 0 104.24 22.507 Q 103.933 22.917 103.669 23.863 A 11.292 11.292 0 0 0 103.613 24.072 A 20.235 20.235 0 0 0 103.32 25.407 Q 103.123 26.459 102.979 27.734 A 114.925 114.925 0 0 0 102.747 29.98 A 146.844 146.844 0 0 0 102.539 32.422 A 91.738 91.738 0 0 0 102.34 35.798 A 78.438 78.438 0 0 0 102.295 37.256 A 787.299 787.299 0 0 1 102.252 39.161 Q 102.232 40.03 102.211 40.804 A 441.922 441.922 0 0 1 102.197 41.309 Q 102.157 42.745 102.15 43.399 A 23.148 23.148 0 0 0 102.148 43.652 L 102.148 46.533 A 47.757 47.757 0 0 0 102.295 50.293 A 68.454 68.454 0 0 0 102.412 51.616 Q 102.476 52.269 102.548 52.848 A 36.591 36.591 0 0 0 102.637 53.516 A 6.039 6.039 0 0 0 102.716 53.963 Q 102.867 54.645 103.126 54.821 A 0.338 0.338 0 0 0 103.32 54.883 Q 106.175 54.883 108.984 52.703 A 14.652 14.652 0 0 0 109.131 52.588 A 26.062 26.062 0 0 0 113.15 48.569 A 30.586 30.586 0 0 0 114.355 46.973 A 32.679 32.679 0 0 0 118.115 40.039 Q 119.09 37.551 119.394 35.572 A 11.138 11.138 0 0 0 119.531 33.887 Z M 209.863 23.73 A 4.077 4.077 0 0 0 206.856 25.018 A 5.444 5.444 0 0 0 206.689 25.195 A 9.649 9.649 0 0 0 205.515 26.832 Q 205.052 27.634 204.666 28.599 A 17.03 17.03 0 0 0 204.492 29.053 A 22.445 22.445 0 0 0 203.658 31.93 A 28.786 28.786 0 0 0 203.223 34.424 Q 202.832 37.402 202.832 40.43 A 53.553 53.553 0 0 0 203.271 47.266 A 39.627 39.627 0 0 0 203.821 50.513 A 30.122 30.122 0 0 0 204.59 53.418 A 18.397 18.397 0 0 0 205.344 55.39 Q 205.784 56.36 206.301 57.141 A 9.608 9.608 0 0 0 206.787 57.813 A 4.937 4.937 0 0 0 207.804 58.791 A 3.662 3.662 0 0 0 209.961 59.473 A 3.606 3.606 0 0 0 212.827 58.108 A 5.705 5.705 0 0 0 213.379 57.324 Q 214.648 55.176 215.381 52.148 A 39.095 39.095 0 0 0 216.357 45.898 A 113.074 113.074 0 0 0 216.464 44.354 Q 216.597 42.21 216.601 40.632 A 38.454 38.454 0 0 0 216.602 40.527 A 45.651 45.651 0 0 0 216.44 36.763 A 54.029 54.029 0 0 0 216.26 34.961 A 31.649 31.649 0 0 0 215.661 31.471 A 26.363 26.363 0 0 0 215.137 29.541 A 16.15 16.15 0 0 0 214.328 27.455 Q 213.814 26.371 213.172 25.505 A 9.879 9.879 0 0 0 213.086 25.391 A 4.512 4.512 0 0 0 211.99 24.347 A 3.78 3.78 0 0 0 209.863 23.73 Z" vector-effect="non-scaling-stroke"/></g></svg>