<svg width="544.923" height="79.786" viewBox="0 0 544.923 79.786" xmlns="http://www.w3.org/2000/svg"><g id="svgGroup" stroke-linecap="round" fill-rule="evenodd" font-size="9pt" stroke="#f2d44f" stroke-width="0.25mm" fill="#f2d44f" style="stroke:#f2d44f;stroke-width:0.25mm;fill:#f2d44f"><path d="M 224.545 62.84 A 7.222 7.222 0 0 0 225.293 59.668 A 6.986 6.986 0 0 0 225.263 59.027 A 7.619 7.619 0 0 0 224.756 56.934 A 9.424 9.424 0 0 0 224.561 56.474 A 8.12 8.12 0 0 0 223.34 54.541 Q 222.461 53.516 221.191 52.881 A 6.029 6.029 0 0 0 218.457 52.246 Q 217.188 52.246 214.551 52.881 A 79.421 79.421 0 0 0 213.22 53.214 A 90.853 90.853 0 0 0 209.082 54.395 A 235.923 235.923 0 0 0 207.681 54.834 A 208.959 208.959 0 0 0 203.662 56.152 A 2006.529 2006.529 0 0 1 203.471 56.217 Q 201.664 56.831 200.577 57.196 A 300.48 300.48 0 0 1 199.902 57.422 L 199.512 54.688 A 19.312 19.312 0 0 1 199.316 51.953 A 8.04 8.04 0 0 1 199.323 51.622 A 8.946 8.946 0 0 1 199.512 50.147 A 53.053 53.053 0 0 1 199.707 49.255 A 41.544 41.544 0 0 1 199.902 48.438 A 569.09 569.09 0 0 0 206.738 46.045 Q 210.156 44.824 213.281 43.164 Q 214.551 42.48 215.869 41.748 A 12.669 12.669 0 0 0 216.053 41.644 A 11.336 11.336 0 0 0 218.213 40.039 Q 219.238 39.063 219.873 37.793 A 5.782 5.782 0 0 0 220.35 36.42 A 7.373 7.373 0 0 0 220.508 34.863 Q 220.508 29.523 216.276 28.354 A 10.173 10.173 0 0 0 213.574 28.027 A 18.829 18.829 0 0 0 210.171 28.348 A 24.34 24.34 0 0 0 206.348 29.395 A 65.532 65.532 0 0 0 203.165 30.628 A 50.632 50.632 0 0 0 199.512 32.324 Q 199.707 29.98 200.146 27.686 A 271.444 271.444 0 0 0 200.977 23.145 A 74.073 74.073 0 0 1 201.205 23.047 Q 202.229 22.612 204.153 21.826 A 726.777 726.777 0 0 1 205.713 21.191 A 134.734 134.734 0 0 0 207.847 20.304 A 158.03 158.03 0 0 0 212.744 18.115 A 112.738 112.738 0 0 0 215.415 16.827 A 94.275 94.275 0 0 0 219.531 14.648 Q 222.656 12.891 223.633 11.621 Q 224.023 11.008 224.301 10.459 A 8.818 8.818 0 0 0 224.658 9.668 Q 224.866 9.132 224.948 8.452 A 7.867 7.867 0 0 0 225 7.52 Q 225 6.055 224.463 4.736 Q 223.926 3.418 222.998 2.344 Q 222.07 1.27 220.752 0.635 Q 219.434 0 217.969 0 A 12.022 12.022 0 0 0 217.465 0.011 Q 216.623 0.047 215.405 0.192 A 57.074 57.074 0 0 0 214.258 0.342 A 120.496 120.496 0 0 0 211.682 0.732 A 163.816 163.816 0 0 0 208.838 1.221 A 96.339 96.339 0 0 0 207.333 1.505 A 110.569 110.569 0 0 0 202.637 2.539 Q 199.414 3.32 196.631 4.199 Q 195.065 4.694 193.731 5.219 A 30.505 30.505 0 0 0 191.797 6.055 A 17.637 17.637 0 0 0 191.094 6.408 Q 189.621 7.192 189.063 7.91 A 20.876 20.876 0 0 0 187.021 11.325 A 27.745 27.745 0 0 0 185.498 15.283 Q 184.18 19.629 183.496 24.365 Q 182.813 29.102 182.568 33.789 A 223.199 223.199 0 0 0 182.505 35.086 Q 182.416 37 182.371 38.723 A 129.128 129.128 0 0 0 182.324 42.09 A 41.823 41.823 0 0 0 182.324 42.164 Q 182.326 42.892 182.352 44.214 A 336.34 336.34 0 0 0 182.373 45.215 A 118.075 118.075 0 0 0 182.389 45.832 Q 182.415 46.776 182.459 47.833 A 207.369 207.369 0 0 0 182.568 50.147 A 503.56 503.56 0 0 0 182.727 53.003 A 585.635 585.635 0 0 0 182.91 56.006 A 248.325 248.325 0 0 0 183.118 58.997 A 208.743 208.743 0 0 0 183.35 61.816 A 90.514 90.514 0 0 0 183.42 62.572 Q 183.529 63.685 183.655 64.676 A 50.62 50.62 0 0 0 183.936 66.602 A 29.498 29.498 0 0 0 183.986 66.893 Q 184.306 68.702 184.668 69.336 A 6.459 6.459 0 0 0 185.116 70.001 Q 185.447 70.433 185.884 70.878 A 14.012 14.012 0 0 0 186.865 71.777 A 17.648 17.648 0 0 0 187.08 71.954 A 19.082 19.082 0 0 0 190.234 74.023 A 28.662 28.662 0 0 0 190.698 74.262 A 25.803 25.803 0 0 0 193.945 75.635 A 15.479 15.479 0 0 0 194.752 75.887 Q 195.405 76.071 195.989 76.167 A 7.337 7.337 0 0 0 197.168 76.27 A 7.756 7.756 0 0 0 198.184 76.194 Q 200.067 75.943 203.223 74.854 A 86.433 86.433 0 0 0 205.815 73.911 A 101.517 101.517 0 0 0 211.719 71.436 A 79.543 79.543 0 0 0 214.905 69.9 A 65.756 65.756 0 0 0 219.727 67.188 Q 222.331 65.569 223.565 64.254 A 5.594 5.594 0 0 0 224.316 63.281 A 8.665 8.665 0 0 0 224.545 62.84 Z M 271.518 62.84 A 7.222 7.222 0 0 0 272.266 59.668 A 6.986 6.986 0 0 0 272.236 59.027 A 7.619 7.619 0 0 0 271.729 56.934 A 9.424 9.424 0 0 0 271.534 56.474 A 8.12 8.12 0 0 0 270.313 54.541 Q 269.434 53.516 268.164 52.881 A 6.029 6.029 0 0 0 265.43 52.246 Q 264.16 52.246 261.523 52.881 A 79.421 79.421 0 0 0 260.193 53.214 A 90.853 90.853 0 0 0 256.055 54.395 A 235.923 235.923 0 0 0 254.654 54.834 A 208.959 208.959 0 0 0 250.635 56.152 A 2006.529 2006.529 0 0 1 250.443 56.217 Q 248.637 56.831 247.549 57.196 A 300.48 300.48 0 0 1 246.875 57.422 L 246.484 54.688 A 19.312 19.312 0 0 1 246.289 51.953 A 8.04 8.04 0 0 1 246.296 51.622 A 8.946 8.946 0 0 1 246.484 50.147 A 53.053 53.053 0 0 1 246.68 49.255 A 41.544 41.544 0 0 1 246.875 48.438 A 569.09 569.09 0 0 0 253.711 46.045 Q 257.129 44.824 260.254 43.164 Q 261.523 42.48 262.842 41.748 A 12.669 12.669 0 0 0 263.026 41.644 A 11.336 11.336 0 0 0 265.186 40.039 Q 266.211 39.063 266.846 37.793 A 5.782 5.782 0 0 0 267.323 36.42 A 7.373 7.373 0 0 0 267.48 34.863 Q 267.48 29.523 263.249 28.354 A 10.173 10.173 0 0 0 260.547 28.027 A 18.829 18.829 0 0 0 257.144 28.348 A 24.34 24.34 0 0 0 253.32 29.395 A 65.532 65.532 0 0 0 250.137 30.628 A 50.632 50.632 0 0 0 246.484 32.324 Q 246.68 29.98 247.119 27.686 A 271.444 271.444 0 0 0 247.949 23.145 A 74.073 74.073 0 0 1 248.178 23.047 Q 249.202 22.612 251.126 21.826 A 726.777 726.777 0 0 1 252.686 21.191 A 134.734 134.734 0 0 0 254.82 20.304 A 158.03 158.03 0 0 0 259.717 18.115 A 112.738 112.738 0 0 0 262.388 16.827 A 94.275 94.275 0 0 0 266.504 14.648 Q 269.629 12.891 270.605 11.621 Q 270.995 11.008 271.274 10.459 A 8.818 8.818 0 0 0 271.631 9.668 Q 271.839 9.132 271.921 8.452 A 7.867 7.867 0 0 0 271.973 7.52 Q 271.973 6.055 271.436 4.736 Q 270.898 3.418 269.971 2.344 Q 269.043 1.27 267.725 0.635 Q 266.406 0 264.941 0 A 12.022 12.022 0 0 0 264.437 0.011 Q 263.596 0.047 262.378 0.192 A 57.074 57.074 0 0 0 261.23 0.342 A 120.496 120.496 0 0 0 258.655 0.732 A 163.816 163.816 0 0 0 255.811 1.221 A 96.339 96.339 0 0 0 254.306 1.505 A 110.569 110.569 0 0 0 249.609 2.539 Q 246.387 3.32 243.604 4.199 Q 242.038 4.694 240.704 5.219 A 30.505 30.505 0 0 0 238.77 6.055 A 17.637 17.637 0 0 0 238.067 6.408 Q 236.594 7.192 236.035 7.91 A 20.876 20.876 0 0 0 233.993 11.325 A 27.745 27.745 0 0 0 232.471 15.283 Q 231.152 19.629 230.469 24.365 Q 229.785 29.102 229.541 33.789 A 223.199 223.199 0 0 0 229.477 35.086 Q 229.389 37 229.344 38.723 A 129.128 129.128 0 0 0 229.297 42.09 A 41.823 41.823 0 0 0 229.297 42.164 Q 229.298 42.892 229.324 44.214 A 336.34 336.34 0 0 0 229.346 45.215 A 118.075 118.075 0 0 0 229.361 45.832 Q 229.388 46.776 229.432 47.833 A 207.369 207.369 0 0 0 229.541 50.147 A 503.56 503.56 0 0 0 229.7 53.003 A 585.635 585.635 0 0 0 229.883 56.006 A 248.325 248.325 0 0 0 230.09 58.997 A 208.743 208.743 0 0 0 230.322 61.816 A 90.514 90.514 0 0 0 230.393 62.572 Q 230.502 63.685 230.628 64.676 A 50.62 50.62 0 0 0 230.908 66.602 A 29.498 29.498 0 0 0 230.958 66.893 Q 231.278 68.702 231.641 69.336 A 6.459 6.459 0 0 0 232.089 70.001 Q 232.419 70.433 232.857 70.878 A 14.012 14.012 0 0 0 233.838 71.777 A 17.648 17.648 0 0 0 234.052 71.954 A 19.082 19.082 0 0 0 237.207 74.023 A 28.662 28.662 0 0 0 237.671 74.262 A 25.803 25.803 0 0 0 240.918 75.635 A 15.479 15.479 0 0 0 241.725 75.887 Q 242.377 76.071 242.961 76.167 A 7.337 7.337 0 0 0 244.141 76.27 A 7.756 7.756 0 0 0 245.156 76.194 Q 247.04 75.943 250.195 74.854 A 86.433 86.433 0 0 0 252.787 73.911 A 101.517 101.517 0 0 0 258.691 71.436 A 79.543 79.543 0 0 0 261.877 69.9 A 65.756 65.756 0 0 0 266.699 67.188 Q 269.303 65.569 270.538 64.254 A 5.594 5.594 0 0 0 271.289 63.281 A 8.665 8.665 0 0 0 271.518 62.84 Z M 492.123 62.84 A 7.222 7.222 0 0 0 492.871 59.668 A 6.986 6.986 0 0 0 492.842 59.027 A 7.619 7.619 0 0 0 492.334 56.934 A 9.424 9.424 0 0 0 492.139 56.474 A 8.12 8.12 0 0 0 490.918 54.541 Q 490.039 53.516 488.77 52.881 A 6.029 6.029 0 0 0 486.035 52.246 Q 484.766 52.246 482.129 52.881 A 79.421 79.421 0 0 0 480.798 53.214 A 90.853 90.853 0 0 0 476.66 54.395 A 235.923 235.923 0 0 0 475.259 54.834 A 208.959 208.959 0 0 0 471.24 56.152 A 2006.529 2006.529 0 0 1 471.049 56.217 Q 469.242 56.831 468.155 57.196 A 300.48 300.48 0 0 1 467.48 57.422 L 467.09 54.688 A 19.312 19.312 0 0 1 466.895 51.953 A 8.04 8.04 0 0 1 466.901 51.622 A 8.946 8.946 0 0 1 467.09 50.147 A 53.053 53.053 0 0 1 467.285 49.255 A 41.544 41.544 0 0 1 467.48 48.438 A 569.09 569.09 0 0 0 474.316 46.045 Q 477.734 44.824 480.859 43.164 Q 482.129 42.48 483.447 41.748 A 12.669 12.669 0 0 0 483.631 41.644 A 11.336 11.336 0 0 0 485.791 40.039 Q 486.816 39.063 487.451 37.793 A 5.782 5.782 0 0 0 487.928 36.42 A 7.373 7.373 0 0 0 488.086 34.863 Q 488.086 29.523 483.854 28.354 A 10.173 10.173 0 0 0 481.152 28.027 A 18.829 18.829 0 0 0 477.75 28.348 A 24.34 24.34 0 0 0 473.926 29.395 A 65.532 65.532 0 0 0 470.743 30.628 A 50.632 50.632 0 0 0 467.09 32.324 Q 467.285 29.98 467.725 27.686 A 271.444 271.444 0 0 0 468.555 23.145 A 74.073 74.073 0 0 1 468.784 23.047 Q 469.807 22.612 471.732 21.826 A 726.777 726.777 0 0 1 473.291 21.191 A 134.734 134.734 0 0 0 475.425 20.304 A 158.03 158.03 0 0 0 480.322 18.115 A 112.738 112.738 0 0 0 482.993 16.827 A 94.275 94.275 0 0 0 487.109 14.648 Q 490.234 12.891 491.211 11.621 Q 491.601 11.008 491.879 10.459 A 8.818 8.818 0 0 0 492.236 9.668 Q 492.445 9.132 492.526 8.452 A 7.867 7.867 0 0 0 492.578 7.52 Q 492.578 6.055 492.041 4.736 Q 491.504 3.418 490.576 2.344 Q 489.648 1.27 488.33 0.635 Q 487.012 0 485.547 0 A 12.022 12.022 0 0 0 485.043 0.011 Q 484.201 0.047 482.983 0.192 A 57.074 57.074 0 0 0 481.836 0.342 A 120.496 120.496 0 0 0 479.26 0.732 A 163.816 163.816 0 0 0 476.416 1.221 A 96.339 96.339 0 0 0 474.911 1.505 A 110.569 110.569 0 0 0 470.215 2.539 Q 466.992 3.32 464.209 4.199 Q 462.643 4.694 461.31 5.219 A 30.505 30.505 0 0 0 459.375 6.055 A 17.637 17.637 0 0 0 458.672 6.408 Q 457.199 7.192 456.641 7.91 A 20.876 20.876 0 0 0 454.599 11.325 A 27.745 27.745 0 0 0 453.076 15.283 Q 451.758 19.629 451.074 24.365 Q 450.391 29.102 450.146 33.789 A 223.199 223.199 0 0 0 450.083 35.086 Q 449.994 37 449.949 38.723 A 129.128 129.128 0 0 0 449.902 42.09 A 41.823 41.823 0 0 0 449.902 42.164 Q 449.904 42.892 449.93 44.214 A 336.34 336.34 0 0 0 449.951 45.215 A 118.075 118.075 0 0 0 449.967 45.832 Q 449.993 46.776 450.037 47.833 A 207.369 207.369 0 0 0 450.146 50.147 A 503.56 503.56 0 0 0 450.305 53.003 A 585.635 585.635 0 0 0 450.488 56.006 A 248.325 248.325 0 0 0 450.696 58.997 A 208.743 208.743 0 0 0 450.928 61.816 A 90.514 90.514 0 0 0 450.998 62.572 Q 451.107 63.685 451.233 64.676 A 50.62 50.62 0 0 0 451.514 66.602 A 29.498 29.498 0 0 0 451.564 66.893 Q 451.884 68.702 452.246 69.336 A 6.459 6.459 0 0 0 452.694 70.001 Q 453.025 70.433 453.463 70.878 A 14.012 14.012 0 0 0 454.443 71.777 A 17.648 17.648 0 0 0 454.658 71.954 A 19.082 19.082 0 0 0 457.813 74.023 A 28.662 28.662 0 0 0 458.276 74.262 A 25.803 25.803 0 0 0 461.523 75.635 A 15.479 15.479 0 0 0 462.331 75.887 Q 462.983 76.071 463.567 76.167 A 7.337 7.337 0 0 0 464.746 76.27 A 7.756 7.756 0 0 0 465.762 76.194 Q 467.646 75.943 470.801 74.854 A 86.433 86.433 0 0 0 473.393 73.911 A 101.517 101.517 0 0 0 479.297 71.436 A 79.543 79.543 0 0 0 482.483 69.9 A 65.756 65.756 0 0 0 487.305 67.188 Q 489.909 65.569 491.143 64.254 A 5.594 5.594 0 0 0 491.895 63.281 A 8.665 8.665 0 0 0 492.123 62.84 Z M 45.407 27.874 A 17.561 17.561 0 0 0 45.605 25.293 A 41.68 41.68 0 0 0 45.496 22.302 A 50.059 50.059 0 0 0 44.824 17.041 A 30.3 30.3 0 0 0 44.722 16.501 A 26.905 26.905 0 0 0 42.09 9.033 A 17.946 17.946 0 0 0 36.914 2.979 Q 33.691 0.586 28.906 0.586 A 21.85 21.85 0 0 0 28.299 0.594 A 18.638 18.638 0 0 0 19.971 2.734 Q 15.918 4.883 12.695 8.398 A 34.699 34.699 0 0 0 11.136 10.223 A 38.892 38.892 0 0 0 7.08 16.504 Q 4.688 21.094 3.125 26.025 A 68.095 68.095 0 0 0 0.781 35.84 A 66.358 66.358 0 0 0 0.22 40.246 A 50.108 50.108 0 0 0 0 44.824 Q 0 50.977 1.318 57.178 A 40.907 40.907 0 0 0 1.723 58.899 A 35.564 35.564 0 0 0 5.664 68.408 A 25.077 25.077 0 0 0 13.574 76.611 A 19.013 19.013 0 0 0 19.938 79.22 A 25.961 25.961 0 0 0 25.488 79.785 Q 28.223 79.785 31.592 78.613 Q 34.961 77.441 37.842 75.391 A 23.455 23.455 0 0 0 38.209 75.124 A 20.758 20.758 0 0 0 42.676 70.654 A 11.801 11.801 0 0 0 42.855 70.402 A 9.619 9.619 0 0 0 44.629 64.844 Q 44.629 62.598 43.164 60.791 Q 41.699 58.984 39.453 58.984 A 15.471 15.471 0 0 0 35.596 59.473 A 49.902 49.902 0 0 0 31.836 60.596 A 53.624 53.624 0 0 1 28.125 61.719 A 14.902 14.902 0 0 1 24.316 62.207 Q 21.387 62.207 19.824 60.4 A 10.769 10.769 0 0 1 18.607 58.67 A 12.947 12.947 0 0 1 17.48 56.006 Q 16.699 53.418 16.553 50.586 Q 16.461 48.816 16.427 47.351 A 70.566 70.566 0 0 1 16.406 45.703 Q 16.406 44.141 16.602 41.65 A 60.675 60.675 0 0 1 16.782 39.742 A 72.744 72.744 0 0 1 17.236 36.377 Q 17.676 33.594 18.408 30.762 A 32.164 32.164 0 0 1 19.114 28.396 A 25.219 25.219 0 0 1 20.215 25.684 A 14.941 14.941 0 0 1 21.269 23.819 A 10.974 10.974 0 0 1 22.754 22.022 A 4.764 4.764 0 0 1 26.172 20.605 Q 26.721 20.605 27.151 20.725 A 1.912 1.912 0 0 1 28.467 21.826 A 6.034 6.034 0 0 1 28.694 22.433 Q 28.864 22.968 28.967 23.6 A 12.125 12.125 0 0 1 29.102 24.902 Q 29.199 26.758 29.248 28.857 A 13.639 13.639 0 0 0 29.257 29.119 A 12.102 12.102 0 0 0 29.98 32.813 A 6.583 6.583 0 0 0 32.324 35.889 Q 33.517 36.766 35.619 37.013 A 15.34 15.34 0 0 0 37.402 37.109 Q 39.648 37.109 41.211 35.938 A 9.195 9.195 0 0 0 43.75 33.008 Q 44.727 31.25 45.166 29.199 A 21.193 21.193 0 0 0 45.407 27.874 Z M 543.731 31.43 A 24.923 24.923 0 0 0 544.922 23.633 Q 544.922 19.043 543.652 14.893 A 24.75 24.75 0 0 0 543.446 14.25 A 21.608 21.608 0 0 0 539.844 7.568 A 18.227 18.227 0 0 0 533.496 2.539 Q 529.688 0.684 524.707 0.684 A 12.497 12.497 0 0 0 523.797 0.72 Q 522.516 0.814 520.651 1.151 A 66.304 66.304 0 0 0 518.799 1.514 Q 514.844 2.344 510.693 3.76 A 57.259 57.259 0 0 0 508.166 4.688 A 48.51 48.51 0 0 0 503.076 7.031 A 21.782 21.782 0 0 0 502.637 7.273 Q 499.546 9.02 498.633 10.938 A 4.401 4.401 0 0 0 498.377 11.491 Q 498.227 11.877 498.118 12.343 A 9.793 9.793 0 0 0 497.949 13.281 A 66.761 66.761 0 0 0 497.855 14.023 A 76.554 76.554 0 0 0 497.607 16.357 A 37.72 37.72 0 0 0 497.573 16.759 A 34.1 34.1 0 0 0 497.461 19.482 L 497.461 21.973 A 243.706 243.706 0 0 0 497.607 30.469 A 240.883 240.883 0 0 1 497.754 38.867 A 205.716 205.716 0 0 1 497.559 47.9 A 205.716 205.716 0 0 0 497.363 56.934 A 121.518 121.518 0 0 0 497.369 58.029 Q 497.386 59.963 497.461 62.842 A 42.612 42.612 0 0 0 498.291 70.215 A 20.392 20.392 0 0 0 498.95 72.686 A 15.994 15.994 0 0 0 500.781 76.465 A 7.267 7.267 0 0 0 500.95 76.707 Q 501.963 78.1 503.426 78.683 A 6.263 6.263 0 0 0 505.762 79.102 A 4.903 4.903 0 0 0 509.093 77.896 A 6.42 6.42 0 0 0 510.352 76.367 Q 512.012 73.633 512.842 69.922 A 48.602 48.602 0 0 0 513.916 62.451 A 581.811 581.811 0 0 0 514.022 60.777 Q 514.183 58.188 514.258 56.543 A 82.971 82.971 0 0 0 517.676 55.127 Q 519.336 54.395 521.094 53.809 Q 521.927 55.475 522.823 57.856 A 82.49 82.49 0 0 1 523.779 60.547 A 119.51 119.51 0 0 0 526.904 68.799 A 38.42 38.42 0 0 0 528.523 72.186 A 29.104 29.104 0 0 0 530.811 75.781 Q 533.008 78.711 536.035 78.711 A 8.322 8.322 0 0 0 537.854 78.525 A 4.958 4.958 0 0 0 541.162 76.221 A 10.181 10.181 0 0 0 542.055 74.349 A 11.061 11.061 0 0 0 542.676 70.605 A 23.83 23.83 0 0 0 542.468 67.542 A 32.047 32.047 0 0 0 541.846 64.209 A 56.539 56.539 0 0 0 539.697 57.275 Q 538.379 53.809 536.719 50.684 Q 535.863 49.072 535.033 47.669 A 53.792 53.792 0 0 0 533.496 45.215 A 38.009 38.009 0 0 0 534.135 44.697 A 33.406 33.406 0 0 0 541.797 35.742 A 22.411 22.411 0 0 0 543.731 31.43 Z M 448.622 13.952 A 33.392 33.392 0 0 0 448.828 10.352 A 15.684 15.684 0 0 0 448.816 9.749 A 17.698 17.698 0 0 0 448.584 7.52 A 11.843 11.843 0 0 0 448.552 7.337 A 10.619 10.619 0 0 0 447.754 4.785 A 6.01 6.01 0 0 0 447.749 4.775 A 5.151 5.151 0 0 0 446.094 2.734 A 3.618 3.618 0 0 0 445.99 2.662 Q 444.94 1.953 443.359 1.953 Q 441.763 1.953 440.215 3.187 A 9.915 9.915 0 0 0 438.965 4.395 Q 436.816 6.836 434.814 10.693 A 72.455 72.455 0 0 0 433.1 14.237 A 91.329 91.329 0 0 0 431.006 19.287 A 271.88 271.88 0 0 0 430.559 20.467 A 246.022 246.022 0 0 0 427.686 28.516 A 288.713 288.713 0 0 0 426.27 32.825 A 217.537 217.537 0 0 0 425.049 36.768 A 10650.086 10650.086 0 0 1 424.552 38.431 Q 424.038 40.151 423.666 41.391 A 2460.027 2460.027 0 0 1 423.34 42.48 A 21.217 21.217 0 0 1 423.297 42.376 Q 422.647 40.793 421.997 38.496 A 71.335 71.335 0 0 1 421.387 36.182 A 809.088 809.088 0 0 1 420.386 32.08 A 991.673 991.673 0 0 1 419.336 27.686 A 423.331 423.331 0 0 0 417.041 18.457 A 90.549 90.549 0 0 0 415.759 13.989 A 70.006 70.006 0 0 0 414.355 9.961 Q 413.52 7.789 412.573 6.077 A 19.519 19.519 0 0 0 411.084 3.76 Q 410.279 2.694 409.407 2.103 A 4 4 0 0 0 407.129 1.367 A 10.173 10.173 0 0 0 406.239 1.405 Q 405.425 1.476 404.748 1.684 A 4.747 4.747 0 0 0 403.174 2.49 Q 401.758 3.613 400.977 5.371 A 11.234 11.234 0 0 0 400.546 6.503 A 12.77 12.77 0 0 0 400 9.229 A 48.096 48.096 0 0 0 399.934 10.011 A 42.848 42.848 0 0 0 399.805 13.281 Q 399.805 21.094 401.563 28.857 A 558.271 558.271 0 0 0 405.273 44.238 Q 405.566 45.41 406.107 47.351 A 308.153 308.153 0 0 0 406.494 48.73 A 87.775 87.775 0 0 0 407.422 51.782 A 114.193 114.193 0 0 0 408.545 55.078 A 117.668 117.668 0 0 0 408.855 55.935 A 129.72 129.72 0 0 0 411.279 62.061 A 61.691 61.691 0 0 0 412.492 64.741 A 49.621 49.621 0 0 0 414.502 68.506 Q 416.211 71.387 418.115 73.242 A 9.46 9.46 0 0 0 418.362 73.475 Q 420.152 75.098 422.07 75.098 A 6.482 6.482 0 0 0 424.638 74.572 A 7.917 7.917 0 0 0 426.611 73.34 A 16.808 16.808 0 0 0 428.625 71.326 A 22.236 22.236 0 0 0 430.469 68.799 A 37.254 37.254 0 0 0 431.951 66.223 A 46.382 46.382 0 0 0 433.691 62.5 A 124.219 124.219 0 0 0 436.377 55.469 A 157.807 157.807 0 0 0 437.251 52.88 A 132.294 132.294 0 0 0 438.525 48.779 A 128.02 128.02 0 0 1 439.091 46.896 Q 439.367 46.004 439.628 45.213 A 62.364 62.364 0 0 1 440.234 43.457 Q 441.406 40.039 442.92 35.791 A 161.692 161.692 0 0 0 445.752 27.051 Q 447.07 22.559 447.949 18.213 A 55.207 55.207 0 0 0 448.059 17.656 Q 448.43 15.72 448.622 13.952 Z M 139.588 10.945 A 10.157 10.157 0 0 0 141.895 4.492 A 6.628 6.628 0 0 0 141.878 4.02 Q 141.842 3.519 141.728 3.097 A 3.21 3.21 0 0 0 141.309 2.148 Q 140.723 1.27 139.746 0.781 A 6.555 6.555 0 0 0 137.646 0.147 A 17.727 17.727 0 0 0 135.352 0 A 15.538 15.538 0 0 0 134.434 0.029 Q 132.015 0.173 128.076 1.025 A 92.075 92.075 0 0 0 126.291 1.431 A 103.296 103.296 0 0 0 118.359 3.662 A 67.535 67.535 0 0 0 114.754 4.939 A 54.917 54.917 0 0 0 109.326 7.373 A 26.269 26.269 0 0 0 108.311 7.927 Q 105.132 9.756 104.199 11.621 Q 103.833 12.427 103.549 13.919 A 27.187 27.187 0 0 0 103.369 14.99 A 46.502 46.502 0 0 0 103.276 15.649 Q 103.14 16.658 103.031 17.788 A 80.188 80.188 0 0 0 102.832 20.264 A 272.521 272.521 0 0 0 102.649 23.328 A 320.161 320.161 0 0 0 102.49 26.563 A 252.327 252.327 0 0 0 102.423 28.204 A 219.684 219.684 0 0 0 102.295 32.91 A 1846.394 1846.394 0 0 1 102.246 35.803 A 1378.433 1378.433 0 0 1 102.197 38.428 Q 102.161 40.295 102.151 41.476 A 92.536 92.536 0 0 0 102.148 42.188 Q 102.148 43.433 102.176 45.502 A 627.837 627.837 0 0 0 102.197 46.973 A 79.087 79.087 0 0 0 102.319 50.244 A 102.956 102.956 0 0 0 102.588 53.809 A 107.139 107.139 0 0 0 103.564 61.377 Q 104.199 65.234 105.225 68.359 Q 106.25 71.484 107.715 73.486 A 6.112 6.112 0 0 0 108.534 74.409 A 3.905 3.905 0 0 0 111.23 75.488 A 5.491 5.491 0 0 0 111.57 75.478 A 4.365 4.365 0 0 0 114.746 73.877 Q 116.113 72.266 116.846 70.068 A 21.291 21.291 0 0 0 117.822 65.527 A 169.306 169.306 0 0 0 117.834 65.415 Q 118.069 63.146 118.164 61.621 A 199.176 199.176 0 0 0 118.457 55.322 A 207.98 207.98 0 0 0 118.555 48.926 A 53.014 53.014 0 0 0 118.569 48.921 Q 120.395 48.336 122.821 47.424 A 160.452 160.452 0 0 0 124.512 46.777 Q 128.027 45.41 131.25 43.457 A 27.588 27.588 0 0 0 132.803 42.444 A 23.565 23.565 0 0 0 136.768 38.965 A 10.653 10.653 0 0 0 136.943 38.765 A 8.308 8.308 0 0 0 139.063 33.203 Q 139.063 32.047 138.781 31.165 A 3.708 3.708 0 0 0 137.256 29.102 Q 136.123 28.367 134.587 28.093 A 11.222 11.222 0 0 0 132.617 27.93 A 19.826 19.826 0 0 0 129.178 28.24 A 25.393 25.393 0 0 0 125.195 29.297 A 69.505 69.505 0 0 0 121.927 30.531 A 53.926 53.926 0 0 0 118.164 32.227 A 95.204 95.204 0 0 0 118.457 27.93 Q 118.555 25.781 118.555 23.73 A 163.434 163.434 0 0 0 120.491 22.941 Q 122.736 22.009 125.488 20.801 A 52.795 52.795 0 0 0 133.154 16.65 A 31.796 31.796 0 0 0 134.915 15.414 A 26.931 26.931 0 0 0 139.355 11.23 A 12.842 12.842 0 0 0 139.588 10.945 Z M 179.92 10.945 A 10.157 10.157 0 0 0 182.227 4.492 A 6.628 6.628 0 0 0 182.21 4.02 Q 182.175 3.519 182.06 3.097 A 3.21 3.21 0 0 0 181.641 2.148 Q 181.055 1.27 180.078 0.781 A 6.555 6.555 0 0 0 177.979 0.147 A 17.727 17.727 0 0 0 175.684 0 A 15.538 15.538 0 0 0 174.766 0.029 Q 172.347 0.173 168.408 1.025 A 92.075 92.075 0 0 0 166.623 1.431 A 103.296 103.296 0 0 0 158.691 3.662 A 67.535 67.535 0 0 0 155.087 4.939 A 54.917 54.917 0 0 0 149.658 7.373 A 26.269 26.269 0 0 0 148.643 7.927 Q 145.464 9.756 144.531 11.621 Q 144.165 12.427 143.881 13.919 A 27.187 27.187 0 0 0 143.701 14.99 A 46.502 46.502 0 0 0 143.608 15.649 Q 143.472 16.658 143.363 17.788 A 80.188 80.188 0 0 0 143.164 20.264 A 272.521 272.521 0 0 0 142.981 23.328 A 320.161 320.161 0 0 0 142.822 26.563 A 252.327 252.327 0 0 0 142.755 28.204 A 219.684 219.684 0 0 0 142.627 32.91 A 1846.394 1846.394 0 0 1 142.578 35.803 A 1378.433 1378.433 0 0 1 142.529 38.428 Q 142.493 40.295 142.484 41.476 A 92.536 92.536 0 0 0 142.48 42.188 Q 142.48 43.433 142.508 45.502 A 627.837 627.837 0 0 0 142.529 46.973 A 79.087 79.087 0 0 0 142.651 50.244 A 102.956 102.956 0 0 0 142.92 53.809 A 107.139 107.139 0 0 0 143.896 61.377 Q 144.531 65.234 145.557 68.359 Q 146.582 71.484 148.047 73.486 A 6.112 6.112 0 0 0 148.866 74.409 A 3.905 3.905 0 0 0 151.563 75.488 A 5.491 5.491 0 0 0 151.902 75.478 A 4.365 4.365 0 0 0 155.078 73.877 Q 156.445 72.266 157.178 70.068 A 21.291 21.291 0 0 0 158.154 65.527 A 169.306 169.306 0 0 0 158.166 65.415 Q 158.401 63.146 158.496 61.621 A 199.176 199.176 0 0 0 158.789 55.322 A 207.98 207.98 0 0 0 158.887 48.926 A 53.014 53.014 0 0 0 158.901 48.921 Q 160.727 48.336 163.153 47.424 A 160.452 160.452 0 0 0 164.844 46.777 Q 168.359 45.41 171.582 43.457 A 27.588 27.588 0 0 0 173.135 42.444 A 23.565 23.565 0 0 0 177.1 38.965 A 10.653 10.653 0 0 0 177.275 38.765 A 8.308 8.308 0 0 0 179.395 33.203 Q 179.395 32.047 179.113 31.165 A 3.708 3.708 0 0 0 177.588 29.102 Q 176.455 28.367 174.919 28.093 A 11.222 11.222 0 0 0 172.949 27.93 A 19.826 19.826 0 0 0 169.51 28.24 A 25.393 25.393 0 0 0 165.527 29.297 A 69.505 69.505 0 0 0 162.259 30.531 A 53.926 53.926 0 0 0 158.496 32.227 A 95.204 95.204 0 0 0 158.789 27.93 Q 158.887 25.781 158.887 23.73 A 163.434 163.434 0 0 0 160.823 22.941 Q 163.068 22.009 165.82 20.801 A 52.795 52.795 0 0 0 173.486 16.65 A 31.796 31.796 0 0 0 175.247 15.414 A 26.931 26.931 0 0 0 179.688 11.23 A 12.842 12.842 0 0 0 179.92 10.945 Z M 317.969 55.371 L 317.969 59.18 Q 322.363 57.813 327.539 56.592 A 46.222 46.222 0 0 1 333.799 55.545 A 38.312 38.312 0 0 1 337.402 55.371 A 29.657 29.657 0 0 1 340.771 55.566 A 10.589 10.589 0 0 1 342.471 55.896 A 8.288 8.288 0 0 1 343.799 56.397 A 5.379 5.379 0 0 1 345.947 58.252 A 4.411 4.411 0 0 1 346.542 59.576 Q 346.704 60.164 346.754 60.862 A 9.158 9.158 0 0 1 346.777 61.523 A 6.059 6.059 0 0 1 345.831 64.742 A 8.703 8.703 0 0 1 344.775 66.113 A 17.851 17.851 0 0 1 342.328 68.278 A 24.64 24.64 0 0 1 339.6 70.02 A 40.175 40.175 0 0 1 335.119 72.137 A 48.776 48.776 0 0 1 332.52 73.096 Q 328.613 74.414 324.805 75.342 A 83.919 83.919 0 0 1 320.326 76.309 A 67.863 67.863 0 0 1 317.627 76.758 A 70.001 70.001 0 0 1 316.031 76.971 Q 314.3 77.182 313.035 77.231 A 18.803 18.803 0 0 1 312.305 77.246 A 22.844 22.844 0 0 1 309.89 77.113 A 28.075 28.075 0 0 1 308.35 76.904 A 8.107 8.107 0 0 1 306.597 76.424 A 6.191 6.191 0 0 1 304.883 75.391 A 2.112 2.112 0 0 1 304.442 74.922 Q 304.073 74.404 303.755 73.507 A 12.698 12.698 0 0 1 303.516 72.754 A 41.992 41.992 0 0 1 303.083 71.106 Q 302.728 69.641 302.393 67.871 A 83.747 83.747 0 0 1 301.778 64.159 A 102.231 102.231 0 0 1 301.465 61.768 A 157.33 157.33 0 0 1 300.83 55.371 A 293.448 293.448 0 0 1 300.61 52.368 A 227.005 227.005 0 0 1 300.439 49.609 A 144.385 144.385 0 0 1 300.375 48.364 Q 300.312 47.018 300.297 46.059 A 35.889 35.889 0 0 1 300.293 45.508 Q 300.293 43.066 300.439 39.6 A 212.658 212.658 0 0 1 300.623 36.011 A 259.81 259.81 0 0 1 300.879 32.178 Q 301.172 28.223 301.66 24.121 A 155.422 155.422 0 0 1 302.401 18.689 A 132.534 132.534 0 0 1 302.783 16.357 Q 303.418 12.695 304.346 9.766 Q 305.273 6.836 306.348 5.176 Q 308.203 2.539 311.035 2.539 A 4.607 4.607 0 0 1 314.355 3.857 A 8.613 8.613 0 0 1 315.822 5.754 A 11.356 11.356 0 0 1 316.553 7.275 Q 317.383 9.375 317.822 11.963 Q 318.262 14.551 318.457 17.09 A 69.709 69.709 0 0 1 318.604 19.531 A 54.027 54.027 0 0 1 318.652 21.777 L 318.652 25.195 A 330.099 330.099 0 0 1 318.311 40.283 A 330.099 330.099 0 0 0 317.969 55.371 Z M 66.309 77.478 A 20.051 20.051 0 0 0 71.875 78.223 Q 78.125 78.223 82.764 75.195 A 23.115 23.115 0 0 0 85.768 72.86 A 25.772 25.772 0 0 0 90.479 66.992 A 36.016 36.016 0 0 0 92.871 62.155 A 44.704 44.704 0 0 0 95.068 55.029 A 60.051 60.051 0 0 0 95.766 51.365 A 68.497 68.497 0 0 0 96.582 40.625 A 84.203 84.203 0 0 0 95.459 26.953 A 53.733 53.733 0 0 0 94.564 22.609 A 43.971 43.971 0 0 0 91.748 14.6 A 28.834 28.834 0 0 0 90.807 12.764 A 24.028 24.028 0 0 0 84.814 5.615 A 15.306 15.306 0 0 0 79.175 2.789 A 19.794 19.794 0 0 0 74.023 2.148 A 22.85 22.85 0 0 0 71.894 2.246 A 17.862 17.862 0 0 0 62.598 5.762 A 27.281 27.281 0 0 0 60.02 7.973 A 29.941 29.941 0 0 0 54.688 15.039 A 41.984 41.984 0 0 0 52.729 19.095 A 48.954 48.954 0 0 0 50.049 27.734 A 65.758 65.758 0 0 0 48.535 41.602 A 74.151 74.151 0 0 0 48.57 43.874 A 65.617 65.617 0 0 0 49.951 55.566 A 46.84 46.84 0 0 0 51.281 60.509 A 36.648 36.648 0 0 0 54.248 67.236 A 27.669 27.669 0 0 0 55.185 68.758 A 23.177 23.177 0 0 0 61.523 75.244 A 16.705 16.705 0 0 0 66.309 77.478 Z M 366.016 77.478 A 20.051 20.051 0 0 0 371.582 78.223 Q 377.832 78.223 382.471 75.195 A 23.115 23.115 0 0 0 385.475 72.86 A 25.772 25.772 0 0 0 390.186 66.992 A 36.016 36.016 0 0 0 392.578 62.155 A 44.704 44.704 0 0 0 394.775 55.029 A 60.051 60.051 0 0 0 395.473 51.365 A 68.497 68.497 0 0 0 396.289 40.625 A 84.203 84.203 0 0 0 395.166 26.953 A 53.733 53.733 0 0 0 394.271 22.609 A 43.971 43.971 0 0 0 391.455 14.6 A 28.834 28.834 0 0 0 390.514 12.764 A 24.028 24.028 0 0 0 384.521 5.615 A 15.306 15.306 0 0 0 378.882 2.789 A 19.794 19.794 0 0 0 373.73 2.148 A 22.85 22.85 0 0 0 371.601 2.246 A 17.862 17.862 0 0 0 362.305 5.762 A 27.281 27.281 0 0 0 359.727 7.973 A 29.941 29.941 0 0 0 354.395 15.039 A 41.984 41.984 0 0 0 352.436 19.095 A 48.954 48.954 0 0 0 349.756 27.734 A 65.758 65.758 0 0 0 348.242 41.602 A 74.151 74.151 0 0 0 348.277 43.874 A 65.617 65.617 0 0 0 349.658 55.566 A 46.84 46.84 0 0 0 350.988 60.509 A 36.648 36.648 0 0 0 353.955 67.236 A 27.669 27.669 0 0 0 354.892 68.758 A 23.177 23.177 0 0 0 361.23 75.244 A 16.705 16.705 0 0 0 366.016 77.478 Z M 73.047 23.73 A 4.077 4.077 0 0 0 70.04 25.018 A 5.444 5.444 0 0 0 69.873 25.195 A 9.649 9.649 0 0 0 68.699 26.832 Q 68.236 27.634 67.85 28.599 A 17.03 17.03 0 0 0 67.676 29.053 A 22.445 22.445 0 0 0 66.842 31.93 A 28.786 28.786 0 0 0 66.406 34.424 Q 66.016 37.402 66.016 40.43 A 53.553 53.553 0 0 0 66.455 47.266 A 39.627 39.627 0 0 0 67.004 50.513 A 30.122 30.122 0 0 0 67.773 53.418 A 18.397 18.397 0 0 0 68.527 55.39 Q 68.967 56.36 69.485 57.141 A 9.608 9.608 0 0 0 69.971 57.813 A 4.937 4.937 0 0 0 70.988 58.791 A 3.662 3.662 0 0 0 73.145 59.473 A 3.606 3.606 0 0 0 76.01 58.108 A 5.705 5.705 0 0 0 76.562 57.324 Q 77.832 55.176 78.564 52.148 A 39.095 39.095 0 0 0 79.541 45.898 A 113.074 113.074 0 0 0 79.648 44.354 Q 79.781 42.21 79.785 40.632 A 38.454 38.454 0 0 0 79.785 40.527 A 45.651 45.651 0 0 0 79.624 36.763 A 54.029 54.029 0 0 0 79.443 34.961 A 31.649 31.649 0 0 0 78.844 31.471 A 26.363 26.363 0 0 0 78.32 29.541 A 16.15 16.15 0 0 0 77.512 27.455 Q 76.998 26.371 76.356 25.505 A 9.879 9.879 0 0 0 76.27 25.391 A 4.512 4.512 0 0 0 75.173 24.347 A 3.78 3.78 0 0 0 73.047 23.73 Z M 372.754 23.73 A 4.077 4.077 0 0 0 369.747 25.018 A 5.444 5.444 0 0 0 369.58 25.195 A 9.649 9.649 0 0 0 368.406 26.832 Q 367.943 27.634 367.557 28.599 A 17.03 17.03 0 0 0 367.383 29.053 A 22.445 22.445 0 0 0 366.549 31.93 A 28.786 28.786 0 0 0 366.113 34.424 Q 365.723 37.402 365.723 40.43 A 53.553 53.553 0 0 0 366.162 47.266 A 39.627 39.627 0 0 0 366.711 50.513 A 30.122 30.122 0 0 0 367.48 53.418 A 18.397 18.397 0 0 0 368.234 55.39 Q 368.674 56.36 369.192 57.141 A 9.608 9.608 0 0 0 369.678 57.813 A 4.937 4.937 0 0 0 370.695 58.791 A 3.662 3.662 0 0 0 372.852 59.473 A 3.606 3.606 0 0 0 375.718 58.108 A 5.705 5.705 0 0 0 376.27 57.324 Q 377.539 55.176 378.271 52.148 A 39.095 39.095 0 0 0 379.248 45.898 A 113.074 113.074 0 0 0 379.355 44.354 Q 379.488 42.21 379.492 40.632 A 38.454 38.454 0 0 0 379.492 40.527 A 45.651 45.651 0 0 0 379.331 36.763 A 54.029 54.029 0 0 0 379.15 34.961 A 31.649 31.649 0 0 0 378.551 31.471 A 26.363 26.363 0 0 0 378.027 29.541 A 16.15 16.15 0 0 0 377.219 27.455 Q 376.705 26.371 376.063 25.505 A 9.879 9.879 0 0 0 375.977 25.391 A 4.512 4.512 0 0 0 374.88 24.347 A 3.78 3.78 0 0 0 372.754 23.73 Z M 526.322 22.128 A 3.984 3.984 0 0 0 525.684 21.143 A 3.521 3.521 0 0 0 524.263 20.196 Q 523.276 19.824 521.875 19.824 Q 519.922 19.824 517.92 20.508 A 26.882 26.882 0 0 0 515.44 21.489 A 22.506 22.506 0 0 0 514.258 22.07 A 242.833 242.833 0 0 1 514.57 34.352 A 237.979 237.979 0 0 1 514.551 37.402 A 30.734 30.734 0 0 0 517.549 36.218 A 36.055 36.055 0 0 0 518.75 35.645 Q 520.898 34.57 522.705 33.008 Q 524.512 31.445 525.684 29.492 A 8.231 8.231 0 0 0 526.799 26.083 A 10.237 10.237 0 0 0 526.855 25 Q 526.855 23.286 526.322 22.128 Z" vector-effect="non-scaling-stroke"/></g></svg>